<svg width="87" height="48" viewBox="0 0 87 48" fill="none" xmlns="http://www.w3.org/2000/svg">
<path d="M45.0681 19.4924L48.2996 19.3712L45.588 28.306H51.3861L54.0966 19.3712L57.2554 19.4924L58.5424 15.25H46.3542L45.0681 19.4924ZM33.0628 21.8122C32.252 26.0018 27.8099 28.5132 22.943 28.5132C18.0765 28.5132 14.6055 26.0023 15.4164 21.8122C16.2101 17.7081 20.7039 15.0423 25.5495 15.0423C30.3946 15.0423 33.8565 17.7086 33.0628 21.8122ZM21.2424 21.8816C20.9549 23.3707 21.9848 24.3925 23.7401 24.3925C25.4962 24.3925 26.9212 23.3711 27.2092 21.8816C27.4772 20.4966 26.559 19.3369 24.7182 19.3369C22.8774 19.336 21.5105 20.4966 21.2424 21.8816Z" fill="#232939"/>
<path d="M31.261 27.3183C32.9155 28.0622 35.1559 28.5132 37.1659 28.5132C40.6151 28.5132 44.3832 26.9723 44.9858 23.8554C45.4145 21.6392 43.8456 20.5655 41.4777 20.1154L40.2125 19.873C39.7848 19.7861 39.079 19.7172 39.1726 19.2319C39.2762 18.6953 40.0471 18.5389 40.5552 18.5389C41.8028 18.5389 42.8413 18.9719 43.7282 19.5261L45.9402 16.1844C44.5248 15.4054 42.924 15.0423 41.1042 15.0423C37.6341 15.0423 33.8499 16.7737 33.2505 19.873C32.8551 21.9163 34.5485 23.0071 36.7486 23.3364L37.8789 23.509C38.3912 23.5964 39.1431 23.6477 39.0291 24.2361C38.915 24.8245 37.9687 25.0151 37.3969 25.0151C36.0638 25.0151 34.9193 24.4785 34.01 23.8207L33.751 23.6302L31.261 27.3183ZM69.8281 15.5789C68.6684 15.2324 67.3504 15.0423 66.0382 15.0423C61.3623 15.0423 57.1123 18.0898 56.3751 21.8992C55.6546 25.6221 58.6503 28.5137 63.1998 28.5137C64.2359 28.5137 66.4241 28.3578 67.4265 27.9942L68.5406 23.1116C67.4645 23.8559 66.3172 24.3236 64.984 24.3236C63.2497 24.3236 61.9612 23.2152 62.2397 21.7789C62.5144 20.3588 64.1503 19.2338 65.8851 19.2338C67.1969 19.2338 68.243 19.8398 69.0377 20.5503L69.8281 15.5789ZM79.1114 15.0423C74.2663 15.0423 69.7725 17.7081 68.9783 21.8122C68.1679 26.0018 71.639 28.5132 76.5059 28.5132C81.3719 28.5132 85.8149 26.0023 86.6252 21.8122C87.418 17.7086 83.956 15.0423 79.1114 15.0423ZM78.2806 19.336C80.1214 19.336 81.0401 20.4957 80.7711 21.8806C80.4836 23.3697 79.0582 24.3916 77.302 24.3916C75.5458 24.3916 74.5163 23.3702 74.8044 21.8806C75.0724 20.4966 76.4398 19.336 78.2806 19.336ZM16.9111 12.6488C15.4639 12.23 13.8213 12 12.1849 12C6.35264 12 1.05176 15.6834 0.133034 20.288C-0.764782 24.7879 2.97097 28.2827 8.64447 28.2827C9.93772 28.2827 12.6673 28.0945 13.9159 27.6553L15.3051 21.7528C13.9644 22.653 12.5323 23.2181 10.8693 23.2181C8.70531 23.2181 7.09931 21.8783 7.44579 20.1406C7.78848 18.4249 9.82841 17.0637 11.9919 17.0637C13.6278 17.0637 14.933 17.7965 15.923 18.6544L16.9111 12.6488Z" fill="#232939"/>
<path d="M83.0573 27.671C83.1442 27.2152 83.6523 26.8478 84.2055 26.8478C84.7545 26.8478 85.1267 27.2152 85.0401 27.671C84.9522 28.1297 84.4418 28.4971 83.8918 28.4971C83.3391 28.4971 82.9708 28.1292 83.0573 27.671ZM84.7816 27.671C84.851 27.3041 84.5877 27.0631 84.1637 27.0631C83.7331 27.0631 83.3852 27.3041 83.3163 27.671C83.2464 28.0384 83.5021 28.2817 83.9332 28.2817C84.3567 28.2817 84.7117 28.0389 84.7816 27.671ZM84.4284 28.1021H84.1723L84.0111 27.7366H83.8434L83.774 28.1021H83.5563L83.7203 27.239H84.2227C84.4441 27.239 84.5639 27.3003 84.5259 27.5032C84.4969 27.651 84.3814 27.7271 84.2479 27.7375L84.4284 28.1021ZM84.111 27.5717C84.2198 27.5717 84.3134 27.5717 84.3315 27.4795C84.3458 27.4034 84.2516 27.4034 84.1428 27.4034H83.9071L83.8762 27.5717H84.111Z" fill="#232939"/>
<g opacity="0.7">
<path d="M29.5263 30.039L29.7478 33.5413H29.8039C29.9184 33.1834 30.0458 32.8098 30.2245 32.4596L31.4317 30.039H33.3932L33.6898 33.5413H33.7459C33.8481 33.1986 33.9631 32.8403 34.12 32.5061L35.2987 30.039H37.9607L34.3609 35.9073H32.1285L31.9317 32.7162H31.8476C31.7621 33.0204 31.687 33.3155 31.5482 33.6036L30.4004 35.9073H28.2236L26.8733 30.039H29.5263Z" fill="#232939"/>
<path d="M37.774 30.039H40.2398L39.8643 32.0156H41.4333L41.8092 30.039H44.275L43.16 35.9073H40.6942L41.0815 33.8683H39.5121L39.1248 35.9073H36.659L37.774 30.039Z" fill="#232939"/>
<path d="M51.4969 32.9885C51.139 34.8721 49.1775 36.0004 47.0302 36.0004C44.8814 36.0004 43.3486 34.8716 43.707 32.9885C44.0573 31.144 46.0416 29.9453 48.1804 29.9453C50.3192 29.9453 51.8467 31.144 51.4969 32.9885ZM46.2792 33.0194C46.1514 33.6886 46.6062 34.1482 47.3814 34.1482C48.1571 34.1482 48.7859 33.6886 48.9137 33.0194C49.0316 32.3963 48.6267 31.8754 47.8139 31.8754C47.0002 31.8759 46.3971 32.3968 46.2792 33.0194ZM52.0578 30.0389H54.6172L53.8596 34.0237H56.0083L55.65 35.9068H50.9423L52.0578 30.0389ZM62.063 33.8055L62.1771 33.8916C62.5782 34.1872 63.0835 34.4286 63.6723 34.4286C63.9247 34.4286 64.3425 34.3426 64.3929 34.0784C64.4433 33.8141 64.1115 33.7908 63.8862 33.7514L63.3867 33.6739C62.4147 33.5256 61.6685 33.0351 61.842 32.1173C62.1077 30.7243 63.7774 29.9458 65.3092 29.9458C66.1125 29.9458 66.8202 30.1098 67.4442 30.4596L66.4675 31.9619C66.0759 31.7129 65.6177 31.518 65.0664 31.518C64.8425 31.518 64.5017 31.5874 64.457 31.8288C64.4152 32.0465 64.7265 32.0779 64.9157 32.1169L65.4746 32.2257C66.5188 32.4287 67.2123 32.9106 67.0236 33.9068C66.7565 35.3079 65.093 36.0004 63.5706 36.0004C62.6837 36.0004 61.6942 35.7979 60.9642 35.4633L62.063 33.8055Z" fill="#232939"/>
<path d="M70.8559 33.7823L70.7537 32.7471C70.7261 32.4981 70.728 32.2414 70.7294 31.9919H70.6358L69.8292 33.7823H70.8559ZM68.6277 35.9073H65.9191L69.4818 30.039H72.3117L73.709 35.9073H71.0003L70.9062 35.1758H68.9732L68.6277 35.9073Z" fill="#232939"/>
<path d="M74.6106 30.039H77.17L76.4124 34.0237H78.5612L78.2028 35.9068H73.4956L74.6106 30.039ZM79.7936 30.039H84.5298L84.2247 31.6426H82.0664L81.96 32.2029H83.9305L83.641 33.7286H81.67L81.5612 34.3041H83.7941L83.4885 35.9073H78.6781L79.7936 30.039Z" fill="#232939"/>
<path d="M0.539062 35.9168H27.6746L27.6727 35.9073H27.6504L27.3072 34.4149H0.539062V35.9168ZM0.539062 33.7837H27.1618L26.8158 32.2823H0.539062V33.7837ZM0.539062 31.6416H26.6599L26.5425 31.0946L26.3025 30.0504H0.539062V31.6416ZM57.2412 30.039H61.977L61.6723 31.6426H59.5145L59.4076 32.2029H61.3781L61.0887 33.7286H59.1181L59.0088 34.3041H61.2412L60.9366 35.9073H56.1253L57.2412 30.039Z" fill="#232939"/>
</g>
</svg>
