<svg width="99" height="38" viewBox="0 0 99 38" fill="none" xmlns="http://www.w3.org/2000/svg">
<g id="Frame 1321315830">
<g id="Desktop-Design">
<g id="M1.-Homepage">
<g id="Group">
<g id="MobileHeader_x2F_normal">
<g id="flormar-copy">
<path id="Vector" d="M5.86953 18.9969V29.9985H2.72962V18.9969H1.15967V15.8565H2.7281C2.7281 13.688 3.49478 11.8373 5.02815 10.3015C6.56153 8.76716 8.41041 8 10.5779 8V11.142C9.27922 11.142 8.16959 11.6035 7.25048 12.525C6.32985 13.448 5.86953 14.5575 5.86953 15.855V18.9969ZM13.6583 8H16.7982V29.9985H13.6583V8ZM26.8581 29.9985C24.6922 29.9985 22.8418 29.2283 21.3099 27.697C19.775 26.1612 19.0084 24.309 19.0084 22.142C19.0084 19.9719 19.775 18.1213 21.3099 16.587C22.8418 15.0527 24.6922 14.2855 26.8581 14.2855C29.0241 14.2855 30.8729 15.0527 32.4078 16.587C33.9412 18.1213 34.7079 19.9719 34.7079 22.142C34.7079 24.309 33.9412 26.1627 32.4078 27.697C30.8729 29.2298 29.0225 29.9985 26.8581 29.9985ZM26.8581 17.4275C25.5595 17.4275 24.4514 17.889 23.5292 18.8105C22.6086 19.7335 22.1483 20.8415 22.1483 22.142C22.1483 23.4394 22.6101 24.5504 23.5292 25.4735C24.4498 26.395 25.5595 26.8565 26.8581 26.8565C28.1537 26.8565 29.2649 26.395 30.1855 25.4735C31.1061 24.5504 31.5665 23.4394 31.5665 22.142C31.5665 20.8415 31.1077 19.7351 30.1855 18.8105C29.2634 17.889 28.1537 17.4275 26.8581 17.4275ZM47.6211 14.2855H50.7595V15.1031C51.6908 14.5575 52.7364 14.2855 53.8979 14.2855C55.6355 14.2855 57.1155 14.8983 58.341 16.1239C58.437 16.2187 58.5255 16.3134 58.6093 16.4066C58.6916 16.3134 58.7815 16.2187 58.8745 16.1239C60.1 14.8983 61.58 14.2855 63.3176 14.2855C65.0552 14.2855 66.5353 14.8983 67.7592 16.1239C68.9847 17.3495 69.5959 18.8319 69.5959 20.571V30H66.456V20.571C66.456 19.7014 66.1512 18.9618 65.5384 18.3475C64.9272 17.7346 64.1864 17.4275 63.3176 17.4275C62.4488 17.4275 61.7096 17.7331 61.0953 18.3475C60.4841 18.9618 60.1792 19.7014 60.1792 20.571V30H57.0378V20.571C57.0378 19.7014 56.733 18.9618 56.1202 18.3475C55.509 17.7346 54.7682 17.4275 53.8994 17.4275C53.0306 17.4275 52.2914 17.7331 51.6802 18.3475C51.0674 18.9618 50.7611 19.7014 50.7611 20.571V30H47.6227V14.2855H47.6211ZM84.3626 28.4412C83.0122 29.4789 81.4437 29.9985 79.6528 29.9985C77.4884 29.9985 75.6379 29.2283 74.1046 27.697C72.5712 26.1612 71.8045 24.309 71.8045 22.142C71.8045 19.9719 72.5712 18.1213 74.1046 16.587C75.6379 15.0527 77.4884 14.2855 79.6528 14.2855C81.4437 14.2855 83.0122 14.8036 84.3626 15.8412V14.2855H87.5025V29.9985H84.3626V28.4412ZM79.6543 17.4275C78.3572 17.4275 77.2491 17.889 76.3269 18.8105C75.4063 19.7335 74.946 20.8415 74.946 22.142C74.946 23.4394 75.4063 24.5504 76.3269 25.4735C77.2475 26.395 78.3556 26.8565 79.6543 26.8565C80.9514 26.8565 82.061 26.395 82.9817 25.4735C83.9023 24.5504 84.3626 23.4394 84.3626 22.142C84.3626 20.8415 83.9023 19.7351 82.9817 18.8105C82.061 17.889 80.9499 17.4275 79.6543 17.4275ZM44.3776 14.2993C44.6154 14.284 44.7647 14.284 44.7647 14.284V17.426C43.4676 17.426 42.2071 17.7148 41.2865 18.6363C40.3673 19.5578 40.0549 20.84 40.0549 22.1405V29.9969H36.918V21.7981V20.0132C36.9698 19.7137 37.0537 19.4294 37.1512 19.1605C38.1115 16.0536 40.8597 14.9289 42.7787 14.5193C43.2893 14.3955 43.8243 14.3222 44.3776 14.2993ZM97.8261 14.2993C98.0639 14.284 98.2133 14.284 98.2133 14.284V17.426C96.9161 17.426 95.6556 17.7148 94.735 18.6363C93.8143 19.5578 93.5049 20.84 93.5049 22.1405V29.9969H90.365V21.7981V20.0132C90.4168 19.7137 90.4976 19.4294 90.5982 19.1605C91.5585 16.0536 94.3052 14.9289 96.2257 14.5193C96.7363 14.3955 97.2713 14.3222 97.8261 14.2993ZM11.6845 17.6796C11.6845 18.8777 10.7135 19.8512 9.51548 19.8512C8.31744 19.8512 7.3465 18.8793 7.3465 17.6796C7.3465 16.48 8.31896 15.5081 9.51548 15.5081C10.7135 15.5065 11.6845 16.48 11.6845 17.6796Z" fill="#232939"/>
</g>
</g>
</g>
</g>
</g>
</g>
</svg>
