<svg width="127" height="48" viewBox="0 0 127 48" fill="none" xmlns="http://www.w3.org/2000/svg">
<g clip-path="url(#clip0_3604_344)">
<g clip-path="url(#clip1_3604_344)">
<mask id="mask0_3604_344" style="mask-type:luminance" maskUnits="userSpaceOnUse" x="-1" y="12" width="127" height="24">
<path d="M125.395 12.3281H-0.802979V35.671H125.395V12.3281Z" fill="white"/>
</mask>
<g mask="url(#mask0_3604_344)">
<mask id="mask1_3604_344" style="mask-type:luminance" maskUnits="userSpaceOnUse" x="-1" y="12" width="127" height="24">
<path d="M125.398 12.3291H-0.799316V35.1235H125.398V12.3291Z" fill="white"/>
</mask>
<g mask="url(#mask1_3604_344)">
<path d="M42.978 30.8033V14.4102H46.2352V30.8033H42.978Z" fill="black"/>
<path d="M49.2031 30.8033V14.4102H56.1983C57.6185 14.4102 58.8014 14.6711 59.7439 15.1959C60.6864 15.7207 61.3918 16.3996 61.8629 17.2328C62.3342 18.0689 62.5683 18.9346 62.5683 19.836C62.5683 20.7373 62.3342 21.606 61.8629 22.4392C61.3918 23.2723 60.6864 23.9572 59.7439 24.4879C58.8014 25.0187 57.6185 25.2855 56.1983 25.2855H52.4603V30.8003H49.2031V30.8033ZM56.1727 17.0252H52.4603V22.6734H56.1727C56.8747 22.6734 57.4582 22.537 57.9198 22.2643C58.3815 21.9915 58.7309 21.6357 58.9618 21.1999C59.1925 20.764 59.3079 20.3163 59.3079 19.8597C59.3079 19.4031 59.1925 18.9376 58.9618 18.5077C58.7309 18.0807 58.3815 17.725 57.9198 17.4433C57.4549 17.1616 56.8747 17.0223 56.1727 17.0223V17.0252Z" fill="black"/>
<path d="M64.7018 30.8033V14.4102H71.6007C72.8766 14.4102 73.9664 14.6296 74.871 15.0624C75.7719 15.4983 76.4605 16.0883 76.9317 16.8355C77.4029 17.5826 77.6371 18.4187 77.6371 19.3497C77.6371 20.3993 77.3329 21.3333 76.7267 22.1516C76.1213 22.9699 75.2423 23.5659 74.0919 23.9335L78.1631 30.8003H74.5471L70.7608 24.2864H67.9589V30.8003H64.7018V30.8033ZM71.5527 17.0252H67.9589V21.8314H71.5527C72.463 21.8314 73.1589 21.5912 73.6367 21.1109C74.1138 20.6306 74.3545 20.0672 74.3545 19.415C74.3545 18.7627 74.1138 18.2053 73.6367 17.7309C73.1589 17.2594 72.463 17.0223 71.5527 17.0223V17.0252Z" fill="black"/>
<path d="M85.8087 31.0257C84.4205 31.0257 83.2373 30.738 82.2628 30.1629C81.2882 29.5877 80.5507 28.8375 80.0474 27.9155C79.544 26.9933 79.2946 26.0001 79.2946 24.9357C79.2946 23.8713 79.544 22.878 80.0474 21.9559C80.5507 21.0338 81.2882 20.2837 82.2628 19.7085C83.2373 19.1333 84.4205 18.8457 85.8087 18.8457C87.1969 18.8457 88.399 19.1333 89.3641 19.7085C90.3285 20.2837 91.063 21.0338 91.5664 21.9559C92.0697 22.878 92.3192 23.8713 92.3192 24.9357C92.3192 26.0001 92.0697 26.9933 91.5664 27.9155C91.063 28.8375 90.3285 29.5877 89.3641 30.1629C88.399 30.738 87.2122 31.0257 85.8087 31.0257ZM85.8087 28.5677C86.5265 28.5677 87.1298 28.3987 87.6163 28.0578C88.1036 27.7168 88.4763 27.2721 88.7295 26.7176C88.9855 26.1631 89.1139 25.5701 89.1139 24.9357C89.1139 24.3012 88.9855 23.6875 88.7295 23.1419C88.4727 22.5963 88.1036 22.1516 87.6163 21.8136C87.1298 21.4727 86.5265 21.3036 85.8087 21.3036C85.0909 21.3036 84.5073 21.4727 84.0135 21.8136C83.5167 22.1546 83.141 22.5963 82.8879 23.1419C82.6311 23.6875 82.5027 24.2864 82.5027 24.9357C82.5027 25.585 82.6311 26.1661 82.8879 26.7176C83.1439 27.2721 83.5196 27.7197 84.0135 28.0578C84.5073 28.3987 85.1062 28.5677 85.8087 28.5677Z" fill="black"/>
<path d="M94.7374 35.1225C94.3209 35.1225 93.8525 35.0929 93.3237 35.0336V32.6201C93.8007 32.6646 94.202 32.6853 94.5229 32.6853C95.337 32.6853 96.0103 32.5638 96.545 32.3207C97.0804 32.0776 97.5327 31.6239 97.8982 30.9597L93.1311 19.0645H96.3663L99.5526 27.4374L102.691 19.0645H105.925L101.281 30.518C100.642 32.0835 99.8181 33.2427 98.8122 33.9958C97.8055 34.7489 96.4494 35.1255 94.7403 35.1255L94.7374 35.1225Z" fill="black"/>
<path d="M112.227 18.8389C113.042 18.8389 113.711 18.9604 114.241 19.2036C114.766 19.4467 115.183 19.7135 115.485 20.0011C115.789 20.2887 115.994 20.5229 116.106 20.6979H116.251V19.0583H119.437V30.8023H116.251V29.1628H116.106C115.994 29.3406 115.786 29.5749 115.485 29.8714C115.18 30.1678 114.766 30.4318 114.241 30.6689C113.714 30.9061 113.042 31.0248 112.227 31.0248C111.284 31.0248 110.464 30.8498 109.759 30.5029C109.057 30.156 108.47 29.6905 107.999 29.1064C107.528 28.5223 107.175 27.87 106.944 27.1466C106.713 26.4231 106.598 25.6849 106.598 24.9318C106.598 24.1787 106.713 23.4404 106.944 22.717C107.175 21.9935 107.528 21.3412 107.999 20.7572C108.47 20.1731 109.057 19.7076 109.759 19.3607C110.461 19.0138 111.284 18.8389 112.227 18.8389ZM113.067 21.2523C112.349 21.2523 111.747 21.4332 111.259 21.7949C110.772 22.1566 110.41 22.6191 110.169 23.1795C109.928 23.7399 109.81 24.324 109.81 24.9288C109.81 25.5337 109.928 26.1178 110.169 26.6782C110.41 27.2385 110.772 27.701 111.259 28.0628C111.747 28.4245 112.349 28.6053 113.067 28.6053C113.786 28.6053 114.385 28.4245 114.862 28.0628C115.34 27.701 115.699 27.2385 115.94 26.6782C116.18 26.1178 116.299 25.5337 116.299 24.9288C116.299 24.324 116.18 23.7399 115.94 23.1795C115.699 22.6191 115.34 22.1566 114.862 21.7949C114.382 21.4332 113.786 21.2523 113.067 21.2523Z" fill="black"/>
<path d="M122.218 30.8028L122.243 13.968H125.405V30.8028H122.218Z" fill="black"/>
<path d="M16.9907 30.8041L29.0831 15.7808C29.4358 15.342 30.1859 15.5732 30.1859 16.1188V30.8041H16.9907Z" fill="black" fill-opacity="0.65"/>
<path d="M12.394 30.8041L0.301537 15.7808C-0.0511014 15.342 -0.80127 15.5732 -0.80127 16.1188V30.8041H12.394Z" fill="black" fill-opacity="0.65"/>
<path d="M14.6934 27.9604L16.9824 30.8038H30.1871L15.6743 12.7859C15.1839 12.1781 14.1997 12.1781 13.7092 12.7859L-0.800415 30.8038H12.4044L14.6934 27.9604Z" fill="black" fill-opacity="0.9"/>
</g>
</g>
</g>
</g>
<defs>
<clipPath id="clip0_3604_344">
<rect width="127" height="48" fill="white"/>
</clipPath>
<clipPath id="clip1_3604_344">
<rect width="126.198" height="23.3429" fill="white" transform="translate(-0.807861 12.3281)"/>
</clipPath>
</defs>
</svg>
