<svg width="134" height="38" viewBox="0 0 134 38" fill="none" xmlns="http://www.w3.org/2000/svg">
<g id="Frame 1321315826">
<g id="Group">
<path id="Vector" opacity="0.5" d="M4.07879 19.3359L1.00641 24.7913C0.440711 25.79 0.576479 26.9977 1.34583 27.8339C1.84365 28.368 2.47724 28.6467 3.13345 28.6467C3.51813 28.6467 3.92544 28.5539 4.28749 28.368L10.5471 25.09L6.86239 23.1603C5.55435 22.4734 4.62683 21.2923 4.21329 19.8977C4.15815 19.7117 4.11338 19.5242 4.07879 19.3359Z" fill="#232939"/>
<path id="Vector_2" d="M12.0316 9C13.2987 9 14.4528 9.67355 15.0863 10.8116L22.961 24.7936C23.5266 25.7923 23.3909 27.0001 22.6215 27.8362C22.1237 28.3704 21.4902 28.6491 20.8339 28.6491C20.4492 28.6491 20.0419 28.5562 19.6799 28.3704L7.48328 21.9833C6.51031 21.4723 5.80883 20.5897 5.49204 19.5213C5.17525 18.4529 5.31101 17.3149 5.85409 16.3394L8.95415 10.8116C9.61035 9.67355 10.7417 9 12.0316 9Z" fill="#232939"/>
<path id="Vector_3" d="M44.2291 12.231V21.1728L35.5865 10.9347C35.4868 10.8183 35.3372 10.7851 35.2042 10.8349L33.1765 11.666C33.0436 11.7158 32.9604 11.8322 32.9604 11.9817V26.724C32.9604 26.9068 33.11 27.0564 33.2928 27.0564H35.8358C36.0187 27.0564 36.1683 26.9068 36.1683 26.724V16.5856L44.8939 26.9401C44.9604 27.0231 45.0435 27.0564 45.1432 27.0564H47.1045C47.2873 27.0564 47.4368 26.9068 47.4368 26.724V11.2338C47.4368 11.0011 47.2042 10.8349 46.9881 10.918L44.4451 11.9153C44.3122 11.9817 44.2291 12.0981 44.2291 12.231Z" fill="#232939"/>
<path id="Vector_4" d="M54.8912 15.0781C53.1628 15.0781 51.7168 15.6765 50.5201 16.8565C49.3235 18.0531 48.7417 19.4991 48.7417 21.2277C48.7417 22.9561 49.34 24.4021 50.5201 25.5988C51.7168 26.7955 53.1628 27.3772 54.8912 27.3772C56.6198 27.3772 58.0824 26.7789 59.279 25.5988C60.4757 24.4021 61.0741 22.9561 61.0741 21.2277C61.0741 19.4991 60.4757 18.0531 59.279 16.8565C58.0658 15.6765 56.6198 15.0781 54.8912 15.0781ZM57.1516 23.5379C56.5533 24.1362 55.7888 24.452 54.8912 24.452C53.9938 24.452 53.2458 24.1529 52.6476 23.5379C52.0492 22.9395 51.75 22.1584 51.75 21.2277C51.75 20.2969 52.0492 19.5324 52.6476 18.9174C53.2458 18.3191 53.9938 18.0033 54.8912 18.0033C55.7888 18.0033 56.5533 18.3025 57.1516 18.9174C57.75 19.5157 58.0658 20.2969 58.0658 21.2277C58.0658 22.1584 57.75 22.923 57.1516 23.5379Z" fill="#232939"/>
<path id="Vector_5" d="M62.7147 27.0567H65.0582C65.241 27.0567 65.3906 26.9072 65.3906 26.7243V21.5524C65.3906 20.4388 65.7562 19.4808 66.4709 18.9988C67.1025 18.5833 67.8005 18.3838 68.5818 18.417C68.7645 18.417 68.9305 18.2675 68.9305 18.0847V15.5055C68.9305 15.3061 68.7645 15.1565 68.5818 15.1731C67.9338 15.223 67.3351 15.4058 66.7867 15.7216C66.1385 16.0872 65.6731 16.6524 65.4073 17.4003V15.9044C65.4073 15.6718 65.1745 15.5055 64.9585 15.5886L62.5984 16.5194C62.4654 16.5692 62.3823 16.6856 62.3823 16.8352V26.7243C62.3823 26.9072 62.5319 27.0567 62.7147 27.0567Z" fill="#232939"/>
<path id="Vector_6" d="M70.2384 15.3626H71.2518H71.2691V13.3307C71.2691 13.1812 71.3518 13.0648 71.4851 13.015L73.8284 12.0842C74.0444 12.0011 74.2764 12.1673 74.2764 12.4V15.3626H77.3431C77.5264 15.3626 77.6758 15.5122 77.6758 15.695V17.9702C77.6758 18.153 77.5264 18.3026 77.3431 18.3026H74.2764V22.5625C74.2764 23.7647 75.0418 24.3256 75.9231 24.3256C76.3491 24.3256 76.8064 24.2377 77.1604 24.1329C77.3998 24.0621 77.6858 24.2419 77.6858 24.4911V26.8282C77.6858 26.9619 77.6038 27.0822 77.4758 27.1224C77.1518 27.2248 76.6444 27.3709 75.9231 27.3709C73.9991 27.3709 71.2691 26.0085 71.2691 22.8029V21.8412V18.3026H70.2384C70.0551 18.3026 69.9058 18.153 69.9058 17.9702V15.695C69.9058 15.5122 70.0551 15.3626 70.2384 15.3626Z" fill="#232939"/>
<path id="Vector_7" d="M99.4628 10.4062C97.1027 10.4062 95.1081 11.2207 93.4627 12.8661C91.8174 14.5115 91.0034 16.5059 91.0034 18.8827C91.0034 21.2593 91.8174 23.2705 93.4627 24.8992C95.1081 26.5446 97.1027 27.359 99.4628 27.359C101.823 27.359 103.834 26.5446 105.479 24.8992C107.125 23.2538 107.955 21.2593 107.955 18.8827C107.955 16.5059 107.125 14.4949 105.479 12.8661C103.834 11.2373 101.823 10.4062 99.4628 10.4062ZM103.219 22.7219C102.205 23.7191 100.958 24.2178 99.4628 24.2178C97.9667 24.2178 96.7201 23.7191 95.7061 22.7219C94.6921 21.7247 94.1941 20.445 94.1941 18.8827C94.1941 17.337 94.6921 16.0405 95.7061 15.0433C96.7201 14.0295 97.9667 13.5309 99.4628 13.5309C100.958 13.5309 102.205 14.0295 103.219 15.0433C104.233 16.0572 104.731 17.337 104.731 18.8827C104.731 20.445 104.233 21.7247 103.219 22.7219Z" fill="#232939"/>
<path id="Vector_8" d="M115.716 15.0781C114.137 15.0781 112.974 15.6266 112.243 16.7069V15.9091C112.243 15.6765 112.009 15.5103 111.794 15.5934L109.45 16.5075C109.317 16.5573 109.234 16.6737 109.234 16.8233V26.7124C109.234 26.8952 109.383 27.0448 109.567 27.0448H111.91C112.093 27.0448 112.243 26.8952 112.243 26.7124V20.7623C112.243 19.7983 112.475 19.0836 112.941 18.6017C113.406 18.1197 114.021 17.887 114.802 17.887C115.5 17.887 116.065 18.0864 116.481 18.5019C116.897 18.9174 117.112 19.5157 117.112 20.2803V26.729C117.112 26.9118 117.262 27.0614 117.445 27.0614H119.789C119.971 27.0614 120.121 26.9118 120.121 26.729V19.9146C120.121 18.4022 119.705 17.2221 118.874 16.3745C118.043 15.5103 116.996 15.0781 115.716 15.0781Z" fill="#232939"/>
<path id="Vector_9" d="M133.435 21.2286C133.435 19.4835 132.887 18.021 131.773 16.8408C130.659 15.6608 129.247 15.0625 127.551 15.0625C125.757 15.0625 124.277 15.6442 123.13 16.8243C121.983 18.0043 121.402 19.4669 121.402 21.212C121.402 22.9904 121.983 24.453 123.147 25.6164C124.311 26.7799 125.857 27.3616 127.784 27.3616C129.879 27.3616 131.491 26.6303 132.637 25.1677C132.754 25.0015 132.721 24.7688 132.538 24.6691L130.676 23.5888C130.543 23.5056 130.377 23.5389 130.261 23.6552C129.679 24.3034 128.864 24.6192 127.817 24.6192C126.022 24.6192 124.942 23.888 124.527 22.4254H133.036C133.203 22.4254 133.335 22.2924 133.369 22.1428C133.402 21.8436 133.435 21.5278 133.435 21.2286ZM124.477 20.1318C124.643 19.3838 124.992 18.8021 125.524 18.4032C126.056 17.9877 126.721 17.7882 127.535 17.7882C128.217 17.7882 128.831 17.9877 129.363 18.37C129.895 18.7522 130.261 19.3506 130.427 20.1484H124.477V20.1318Z" fill="#232939"/>
<path id="Vector_10" d="M78.9917 10.2682V26.7271C78.9917 26.9099 79.141 27.0596 79.3244 27.0596H81.6677C81.8504 27.0596 82.0004 26.9099 82.0004 26.7271V20.7604C82.0004 19.7964 82.2324 19.0817 82.6984 18.5998C83.1637 18.1178 83.7784 17.8851 84.559 17.8851C85.2577 17.8851 85.8224 18.0845 86.2377 18.5001C86.6537 18.9156 86.8697 19.5139 86.8697 20.2785V26.7271C86.8697 26.9099 87.019 27.0596 87.2024 27.0596H89.545C89.7284 27.0596 89.8777 26.9099 89.8777 26.7271V19.9128C89.8777 18.4003 89.4624 17.2203 88.6317 16.3726C87.801 15.525 86.753 15.0929 85.4737 15.0929C83.895 15.0929 82.731 15.6414 82.0004 16.7217V9.3375C82.0004 9.10481 81.767 8.93861 81.551 9.02171L79.2077 9.95245C79.0744 10.0023 78.9917 10.1187 78.9917 10.2682Z" fill="#232939"/>
</g>
</g>
</svg>
