<svg width="147" height="38" viewBox="0 0 147 38" fill="none" xmlns="http://www.w3.org/2000/svg">
<g id="Frame 1321315825">
<g id="Group">
<path id="Vector" d="M55.013 27.5913L52.2424 23.6202C52.0577 23.6433 51.896 23.6433 51.7114 23.6433H48.6407V27.5913H46.124V14.0156H51.7114C55.29 14.0156 57.5064 15.8396 57.5064 18.841C57.5064 20.8959 56.4675 22.4196 54.6205 23.1354L57.7604 27.5913H55.013ZM51.5959 16.1397H48.6407V21.5654H51.5959C53.8124 21.5654 54.9437 20.5495 54.9437 18.841C54.9437 17.1325 53.8124 16.1397 51.5959 16.1397Z" fill="#232939"/>
<path id="Vector_2" d="M68.6537 21.5199V27.592H66.368V26.3221C65.7908 27.2225 64.6595 27.7305 63.1125 27.7305C60.7576 27.7305 59.2568 26.4376 59.2568 24.6367C59.2568 22.9051 60.4344 21.5429 63.5743 21.5429H66.2525V21.3813C66.2525 19.9729 65.3983 19.1187 63.6667 19.1187C62.5123 19.1187 61.3117 19.5112 60.5267 20.1576L59.5801 18.4029C60.6883 17.5486 62.3045 17.1331 63.9668 17.1331C66.9221 17.11 68.6537 18.5415 68.6537 21.5199ZM66.2294 24.3596V23.159H63.736C62.0967 23.159 61.6349 23.7825 61.6349 24.5444C61.6349 25.4217 62.3737 25.9758 63.6205 25.9758C64.798 25.9527 65.8139 25.4217 66.2294 24.3596Z" fill="#232939"/>
<path id="Vector_3" d="M81.9776 21.6577V27.5913H79.5528V21.9579C79.5528 20.1108 78.6299 19.2104 77.083 19.2104C75.3514 19.2104 74.1965 20.2493 74.1965 22.3273V27.5682H71.7725V17.2248H74.0815V18.5639C74.8895 17.6173 76.1361 17.1094 77.6597 17.1094C80.1303 17.1094 81.9776 18.5408 81.9776 21.6577Z" fill="#232939"/>
<path id="Vector_4" d="M89.298 23.1615L87.4972 24.87V27.5944H85.0732V13.1875H87.4972V21.8917L92.5307 17.2279H95.4398L91.0987 21.5684L95.8318 27.5713H92.8769L89.298 23.1615Z" fill="#232939"/>
<path id="Vector_5" d="M110.099 27.5914L110.076 18.587L105.62 26.0445H104.489L100.033 18.7025V27.5914H97.6318V14.0156H99.7097L105.112 23.02L110.422 14.0156H112.5L112.523 27.5914H110.099Z" fill="#232939"/>
<path id="Vector_6" d="M124.599 21.5199V27.592H122.313V26.3221C121.736 27.2225 120.605 27.7305 119.058 27.7305C116.703 27.7305 115.202 26.4376 115.202 24.6367C115.202 22.9051 116.38 21.566 119.52 21.566H122.198V21.4044C122.198 19.996 121.344 19.1417 119.612 19.1417C118.458 19.1417 117.257 19.5342 116.472 20.1807L115.526 18.4029C116.634 17.5486 118.25 17.1331 119.913 17.1331C122.868 17.11 124.599 18.5415 124.599 21.5199ZM122.175 24.3596V23.159H119.681C118.042 23.159 117.58 23.7825 117.58 24.5444C117.58 25.4217 118.319 25.9758 119.566 25.9758C120.743 25.9527 121.759 25.4217 122.175 24.3596Z" fill="#232939"/>
<path id="Vector_7" d="M133.93 27.0356C133.354 27.4974 132.476 27.7283 131.599 27.7283C129.336 27.7283 128.02 26.5277 128.02 24.242V19.255H126.312V17.3156H128.02V14.9375H130.445V17.2925H133.215V19.2319H130.445V24.1727C130.445 25.1886 130.952 25.7196 131.876 25.7196C132.361 25.7427 132.845 25.5811 133.238 25.304L133.93 27.0356Z" fill="#232939"/>
<path id="Vector_8" d="M146.142 21.6608V27.5944H143.718V21.9609C143.718 20.1139 142.794 19.2135 141.247 19.2135C139.515 19.2135 138.361 20.2524 138.361 22.3303V27.5713H135.937V13.1875H138.361V18.4285C139.169 17.5743 140.393 17.1124 141.824 17.1124C144.294 17.1124 146.142 18.5439 146.142 21.6608Z" fill="#232939"/>
<path id="Vector_9" d="M39.0126 19.0781L32.6865 19.3552L33.7947 21.0868L23.2666 27.8285L12.8308 23.4418L0.686523 28.4981L1.51769 30.5298L12.8078 25.8199L23.4744 30.2989L34.9722 22.957L36.0805 24.7117L39.0126 19.0781Z" fill="#232939"/>
<path id="Vector_10" d="M5.16309 25.5397L12.8052 22.3535L13.1747 22.5151V17.9899H5.16309V25.5397ZM22.6638 7V26.4863L23.2641 26.7403L30.6754 22.0072V7H22.6638ZM13.9134 22.8153L21.925 26.1862V12.4949H13.9134V22.8153Z" fill="#232939"/>
</g>
</g>
</svg>
