<svg width="69" height="48" viewBox="0 0 69 48" fill="none" xmlns="http://www.w3.org/2000/svg">
<g clip-path="url(#clip0_3604_389)">
<path d="M43.1038 20.3766C43.6278 20.3766 44.0007 20.5572 44.2476 20.9282C44.4975 21.3036 44.623 21.8378 44.623 22.5181L44.6216 22.6413C44.6067 23.2622 44.4805 23.7562 44.2476 24.1128C43.9997 24.4881 43.6253 24.672 43.1038 24.672C42.5824 24.672 42.2096 24.4896 41.9652 24.1153C41.7191 23.7374 41.5947 23.1983 41.5947 22.5181C41.5947 21.8378 41.7198 21.3036 41.9652 20.9282C42.2091 20.5555 42.5799 20.3767 43.1038 20.3766Z" fill="#232939"/>
<path d="M25.6788 21.8604L25.6662 21.8599H25.6788V21.8604Z" fill="#232939"/>
<path d="M27.1375 20.3464C27.6589 20.3464 28.0041 20.5515 28.251 20.9233C28.4145 21.1689 28.486 21.4952 28.513 21.8604L25.6788 21.8599C25.735 21.4823 25.8389 21.1676 26.0013 20.9233C26.2452 20.5505 26.616 20.3464 27.1375 20.3464Z" fill="#232939"/>
<path d="M57.4976 21.8604L57.4851 21.8599H57.4976V21.8604Z" fill="#232939"/>
<path d="M58.9563 20.3464C59.4778 20.3464 59.8229 20.5515 60.0698 20.9233C60.2336 21.1689 60.3051 21.4952 60.3318 21.8604L57.4976 21.8599C57.5538 21.4823 57.6575 21.1676 57.8201 20.9233C58.0637 20.5505 58.4348 20.3464 58.9563 20.3464Z" fill="#232939"/>
<path d="M18.2485 22.6475C18.6096 22.6539 18.9699 22.6847 19.3269 22.7395V24.5458H19.3273C19.3221 24.5469 18.8206 24.6547 18.2542 24.6888C17.4539 24.7369 17.0952 24.4618 17.0902 24.4567L17.088 24.4553C16.9321 24.3308 16.9104 24.3004 16.8587 24.2196C16.7799 24.0979 16.7396 23.9248 16.7396 23.7032C16.7396 23.3556 16.8554 23.1036 17.0947 22.9348C17.0937 22.934 17.4392 22.6374 18.2485 22.6475Z" fill="#232939"/>
<path fill-rule="evenodd" clip-rule="evenodd" d="M17.9501 0C22.2581 0 26.1127 2.05321 28.5312 5.24012L28.7386 5.01377C30.9334 2.83669 33.9256 1.49855 37.2204 1.49855C41.7551 1.49857 45.6852 4.01775 47.8015 7.77148C49.6799 6.93176 51.7147 6.49824 53.7723 6.49928C61.9348 6.49934 68.5604 13.1755 68.5604 21.4136C68.5604 29.6518 61.9348 36.328 53.7723 36.328C52.7746 36.328 51.802 36.2276 50.8497 36.0382C48.998 39.3385 45.4585 41.5806 41.4276 41.5807C39.7865 41.5839 38.1662 41.2116 36.6911 40.4923C34.8143 44.901 30.4433 48 25.3543 48C20.0386 48 15.5291 44.6492 13.7908 39.9382C13.0171 40.1015 12.2285 40.1835 11.4378 40.183C5.1143 40.183 0 34.9931 0 28.6193C3.51354e-05 24.3365 2.30272 20.6079 5.71888 18.5925C4.99415 16.9229 4.62094 15.122 4.62284 13.3019C4.62286 5.94555 10.5937 0 17.9501 0ZM39.9911 16.7433C39.2723 16.7433 38.7056 16.9462 38.3078 17.3473C37.9128 17.7454 37.644 18.3518 37.5092 19.1497L37.4607 19.4191H36.5585C36.5585 19.4191 36.4484 19.4146 36.4252 19.5347L36.2771 20.3609C36.2668 20.44 36.3007 20.4896 36.4065 20.4891H37.2848L36.3937 25.4627C36.3239 25.8633 36.244 26.193 36.1555 26.4427C36.0684 26.689 35.9833 26.8738 35.8785 27.0078C35.777 27.1375 35.6807 27.2328 35.5147 27.2885C35.3776 27.3346 35.22 27.3559 35.0472 27.3559C34.951 27.3559 34.8228 27.3396 34.7283 27.3207C34.634 27.3021 34.5848 27.2811 34.5141 27.2514C34.5141 27.2514 34.4109 27.212 34.3704 27.3153C34.3373 27.3999 34.1033 28.0434 34.0756 28.123C34.0475 28.2016 34.087 28.2636 34.1369 28.2815C34.2538 28.3233 34.3408 28.35 34.5 28.3875C34.7212 28.4396 34.9076 28.4429 35.0821 28.4429C35.4479 28.4429 35.7813 28.3916 36.0576 28.2918C36.3358 28.1913 36.5779 28.0162 36.792 27.7791C37.0235 27.5234 37.1691 27.2555 37.3084 26.8902C37.4462 26.5282 37.5636 26.0787 37.6575 25.555L38.5531 20.4891H39.8619C39.8619 20.4891 39.9723 20.493 39.9953 20.3734L40.1434 19.547C40.1537 19.468 40.12 19.4186 40.0137 19.4191H38.7433C38.7496 19.3904 38.8072 18.9433 38.9531 18.5226C39.0153 18.343 39.1324 18.1982 39.2316 18.0987C39.3243 18.0039 39.4385 17.9328 39.5645 17.8915C39.7026 17.8488 39.8466 17.8281 39.9911 17.83C40.1107 17.83 40.2282 17.8444 40.3176 17.863C40.4407 17.8892 40.4886 17.9031 40.5208 17.9127C40.6503 17.9522 40.6678 17.9139 40.6933 17.8512L40.9969 17.0169C41.0281 16.9272 40.952 16.8895 40.9238 16.8784C40.7949 16.8394 40.6638 16.8083 40.5311 16.7852C40.3527 16.7554 40.172 16.7414 39.9911 16.7433ZM12.339 19.2786C11.0517 19.2787 10.1523 20.0571 10.1523 21.1706V21.1947C10.1523 22.3686 11.1449 22.7515 12.072 23.016L12.2211 23.0625C12.8963 23.2701 13.4808 23.4505 13.4808 23.9241V23.9477C13.4808 24.3836 13.1004 24.7087 12.4908 24.7087C12.2537 24.7087 11.498 24.7046 10.6793 24.1871C10.5803 24.1294 10.5238 24.0878 10.4475 24.0412C10.4072 24.0168 10.3066 23.9727 10.2627 24.1047L9.98547 24.8755L9.97489 24.9158C9.95749 24.9957 10.0035 25.0158 10.0157 25.0332C10.1445 25.1264 10.2752 25.194 10.4062 25.2699C11.1065 25.6402 11.7668 25.7486 12.4571 25.7486C13.8627 25.7486 14.7369 25.0003 14.737 23.7962V23.7723C14.7369 22.6588 13.7494 22.2532 12.8273 21.9635L12.7065 21.9244C12.0087 21.6982 11.4068 21.5011 11.4068 21.0426V21.0193C11.4068 20.6263 11.7594 20.3365 12.3035 20.3365C12.9081 20.3365 13.6286 20.5378 14.0897 20.7924C14.0897 20.7924 14.2263 20.8806 14.2759 20.7489C14.303 20.6773 14.5378 20.0489 14.563 19.9781C14.5897 19.9043 14.543 19.8486 14.4949 19.8199C13.9658 19.4974 13.2352 19.2781 12.4794 19.2781L12.339 19.2786ZM32.9191 19.2767C31.6317 19.2767 30.7324 20.0551 30.7324 21.1686V21.1927C30.7324 22.3666 31.7251 22.7495 32.6521 23.014L32.801 23.0605C33.4786 23.2681 34.0606 23.4485 34.0606 23.9221V23.9458C34.0606 24.3816 33.68 24.7065 33.0704 24.7065C32.8327 24.7065 32.0752 24.7025 31.2591 24.1851C31.1602 24.1275 31.1022 24.0876 31.0271 24.0392C31.0017 24.0231 30.8829 23.9767 30.8424 24.1027L30.5653 24.8735L30.5567 24.9136C30.5392 24.9937 30.5855 25.0138 30.5981 25.0312C30.7263 25.1244 30.8575 25.1921 30.9885 25.2679C31.6888 25.6382 32.3489 25.7464 33.0391 25.7464C34.4449 25.7464 35.3193 24.9982 35.3193 23.794V23.7703C35.3193 22.6569 34.3342 22.2513 33.4096 21.9615L33.2888 21.9224C32.591 21.6962 31.9888 21.4992 31.9888 21.0407V21.0173C31.9888 20.6243 32.3417 20.3346 32.8859 20.3346C33.4905 20.3346 34.2085 20.5358 34.672 20.7905C34.672 20.7905 34.8086 20.8787 34.8585 20.7469C34.8853 20.6754 35.1204 20.0469 35.1432 19.9761C35.1701 19.9023 35.1229 19.8466 35.075 19.8179C34.5459 19.4955 33.8153 19.2762 33.0596 19.2762L32.9191 19.2767ZM43.1014 19.2983C42.6227 19.2983 42.202 19.3832 41.8417 19.5502C41.484 19.7175 41.1791 19.9482 40.9398 20.2354C40.7009 20.5226 40.5215 20.8655 40.4057 21.2559C40.291 21.6439 40.2329 22.0671 40.2329 22.5181C40.2329 22.969 40.291 23.3922 40.4057 23.7802C40.5208 24.1706 40.7005 24.5133 40.9398 24.8004C41.1794 25.0876 41.484 25.317 41.8417 25.4807C42.202 25.644 42.6252 25.7272 43.1014 25.7272C43.5775 25.7272 44.0008 25.644 44.3586 25.4807C44.7163 25.3175 45.0212 25.0876 45.2605 24.8004C45.4995 24.5133 45.6787 24.1706 45.7946 23.7802C45.909 23.3922 45.9671 22.969 45.9671 22.5181C45.9671 22.0697 45.909 21.6439 45.7946 21.2559L45.7506 21.1118C45.6356 20.7806 45.4724 20.4867 45.263 20.2354C45.0234 19.9482 44.7213 19.7165 44.361 19.5502C44.0033 19.3827 43.58 19.2983 43.1014 19.2983ZM27.2307 19.2941C26.7344 19.2941 26.2834 19.378 25.9181 19.5485C25.5529 19.7203 25.2455 19.954 25.0037 20.2463C24.7626 20.5385 24.5805 20.8838 24.4646 21.2793C24.349 21.6698 24.2907 22.0982 24.2907 22.5466C24.2907 23.0051 24.3509 23.4309 24.471 23.8163C24.5914 24.2043 24.786 24.5444 25.0455 24.8265C25.3075 25.1112 25.6425 25.3329 26.0456 25.4891C26.4462 25.644 26.93 25.7243 27.4893 25.7226C28.638 25.7188 29.2426 25.463 29.4895 25.3245C29.5333 25.2998 29.5751 25.2572 29.5229 25.1345L29.2636 24.4066C29.2236 24.298 29.1135 24.3372 29.1135 24.3372C28.8289 24.4435 28.4258 24.6344 27.4811 24.6319C26.8664 24.6309 26.4078 24.4489 26.1206 24.1635C25.8284 23.8713 25.6823 23.4454 25.6596 22.8408L29.6403 22.8438C29.6438 22.8437 29.7453 22.841 29.7559 22.7405C29.7602 22.698 29.892 21.9241 29.6368 21.0298L29.6341 21.0291C29.5344 20.6537 29.2866 20.2732 29.1253 20.0994C28.8684 19.8248 28.6189 19.631 28.3696 19.5251C28.0095 19.372 27.622 19.2935 27.2307 19.2941ZM59.0495 19.2941C58.5533 19.2941 58.1023 19.378 57.737 19.5485C57.3717 19.7203 57.0643 19.954 56.8225 20.2463C56.5809 20.5385 56.3993 20.8838 56.2835 21.2793C56.1676 21.6698 56.109 22.0982 56.109 22.5466C56.109 23.0051 56.1697 23.4309 56.2891 23.8163C56.4098 24.2043 56.6041 24.5444 56.8661 24.8265C57.1281 25.1112 57.4633 25.3329 57.8664 25.4891C58.2669 25.644 58.7531 25.7243 59.3098 25.7226C60.4586 25.7188 61.0634 25.463 61.3103 25.3245C61.3543 25.2998 61.3958 25.2572 61.344 25.1345L61.0844 24.4066C61.045 24.2991 60.9371 24.3364 60.9348 24.3372C60.6502 24.4435 60.2469 24.6344 59.3022 24.6319C58.6851 24.6309 58.2291 24.4489 57.9419 24.1635C57.6497 23.8713 57.5036 23.4454 57.4809 22.8408L61.4613 22.8438C61.4613 22.8438 61.5661 22.8428 61.577 22.7405C61.5813 22.6981 61.7133 21.9242 61.4584 21.0298L61.453 21.0291C61.3529 20.6537 61.1054 20.2732 60.9442 20.0994C60.6873 19.8248 60.4378 19.631 60.1884 19.5251C59.8283 19.372 59.4408 19.2935 59.0495 19.2941ZM53.9406 19.2821C53.4468 19.2821 53.0083 19.3665 52.6329 19.5338C52.2576 19.7008 51.9401 19.9318 51.6882 20.2189C51.4363 20.5061 51.2449 20.8487 51.1164 21.2392C50.9892 21.6272 50.9248 22.0529 50.9248 22.5038C50.9248 23.4762 51.1869 24.2649 51.7059 24.8418C52.2249 25.4212 53.0057 25.7134 54.0235 25.7135C54.6256 25.7135 55.243 25.5918 55.6864 25.4163C55.6876 25.4156 55.7705 25.3747 55.7341 25.2768L55.4445 24.4806L55.4354 24.4609C55.3914 24.3717 55.2935 24.4095 55.2935 24.4095C55.1229 24.4747 54.9407 24.5353 54.7468 24.5655C54.5513 24.5962 54.3336 24.6115 54.1044 24.6115C53.5376 24.6115 53.0841 24.4424 52.7616 24.1076C52.4366 23.7726 52.2552 23.2334 52.2577 22.5028C52.2595 21.8378 52.4203 21.339 52.7087 20.956C52.9934 20.5782 53.4318 20.3816 54.0112 20.3816C54.4949 20.3816 54.8654 20.4378 55.2533 20.5592C55.256 20.5603 55.3459 20.5976 55.3894 20.4783C55.4924 20.1936 55.5684 19.9893 55.679 19.6769C55.7102 19.5875 55.6336 19.5498 55.6057 19.5389C55.4535 19.4795 55.0944 19.3819 54.8223 19.3409C54.5679 19.3021 54.2731 19.2821 53.9406 19.2821ZM18.1361 19.285C17.8388 19.285 17.3575 19.3253 17.0703 19.3829C17.0644 19.3841 16.2026 19.5523 15.8461 19.8315C15.8461 19.8315 15.7673 19.8798 15.8101 19.9894L16.0923 20.7452C16.1267 20.8415 16.2195 20.8108 16.2227 20.8097C16.2227 20.8097 16.2529 20.7978 16.2882 20.7769C17.0515 20.3613 18.019 20.3739 18.019 20.3739C18.4472 20.374 18.7797 20.4608 19.0014 20.6308C19.2183 20.7973 19.3288 21.049 19.3288 21.578V21.746C18.9903 21.6969 18.6768 21.6686 18.6739 21.6683L18.6702 21.6589C18.509 21.6471 18.2998 21.6412 18.0505 21.6412C17.7104 21.6412 17.3801 21.6836 17.0728 21.7667C16.7629 21.8503 16.4832 21.9799 16.2439 22.1522C16.0039 22.3234 15.8065 22.5475 15.667 22.8071C15.5261 23.0691 15.4544 23.3767 15.4544 23.7243C15.4544 24.077 15.5158 24.3818 15.6367 24.6312C15.7552 24.8785 15.9335 25.0924 16.1556 25.2534C16.3765 25.4141 16.6493 25.5332 16.9643 25.6037C17.2766 25.675 17.6293 25.711 18.0173 25.711C18.4254 25.711 18.831 25.6766 19.224 25.6104C19.5587 25.5526 19.8924 25.4879 20.2244 25.416C20.3555 25.3858 20.5008 25.3462 20.5038 25.3454C20.6008 25.3208 20.5948 25.2181 20.5946 25.2155L20.5924 21.5876C20.5924 20.7915 20.3796 20.1994 19.9599 19.8342C19.5417 19.4689 18.9296 19.285 18.1361 19.285ZM22.0016 16.8715C21.9349 16.8715 21.8875 16.9251 21.8875 16.9913V25.4733C21.8875 25.5398 21.9349 25.5941 22.0016 25.5941H23.0554C23.1219 25.5941 23.1693 25.5398 23.1693 25.4733V16.9913C23.1692 16.9251 23.1219 16.8715 23.0554 16.8715H22.0016ZM49.9407 19.3544C49.4419 19.3232 49.1646 19.4074 48.9152 19.5192C48.6689 19.6303 48.3962 19.8089 48.245 20.0155L48.2445 19.5318C48.2445 19.4653 48.1974 19.4117 48.1304 19.4117H47.1126C47.0466 19.4117 46.9987 19.4653 46.9987 19.5318V25.4522C46.9987 25.4841 47.0115 25.5149 47.0341 25.5375C47.0567 25.5602 47.0875 25.5729 47.1195 25.573H48.1624C48.1943 25.5729 48.2249 25.5601 48.2475 25.5375C48.2701 25.5149 48.2829 25.4841 48.2829 25.4522V22.4794C48.2829 22.0814 48.3267 21.6859 48.4141 21.4365C48.5002 21.1899 48.6173 20.993 48.7617 20.852C48.8994 20.7157 49.068 20.6146 49.253 20.5572C49.4267 20.5074 49.6065 20.4822 49.7871 20.4822C49.9925 20.4822 50.2175 20.5343 50.2228 20.5356C50.2994 20.5441 50.3421 20.4973 50.368 20.4283C50.4363 20.2467 50.6301 19.7026 50.6679 19.5943L50.6718 19.5901C50.6733 19.5831 50.674 19.5759 50.6741 19.5687C50.6741 19.5543 50.6715 19.5399 50.6659 19.5266C50.6604 19.5133 50.6521 19.5011 50.6418 19.491C50.6315 19.4808 50.6191 19.4729 50.6057 19.4676C50.5379 19.4419 50.2001 19.3705 49.9407 19.3544Z" fill="#232939"/>
</g>
<defs>
<clipPath id="clip0_3604_389">
<rect width="69" height="48" fill="white"/>
</clipPath>
</defs>
</svg>
