<svg width="84" height="48" viewBox="0 0 84 48" fill="none" xmlns="http://www.w3.org/2000/svg">
<path fill-rule="evenodd" clip-rule="evenodd" d="M58.2825 35.4238V32.7981C59.6759 34.7091 62.1456 35.9989 65.0327 35.9989C70.1811 35.9989 72.9897 32.6612 72.9897 25.9957C72.9897 20.0141 69.8737 16.0205 65.1912 16.0205C62.218 16.0205 59.7764 17.2323 58.2825 19.1905V12H48.9465V35.4238H58.2825ZM63.7639 26.2962C63.7639 29.1849 62.5862 30.7483 60.8739 30.7483C59.1773 30.7483 57.952 29.1686 57.952 26.2962C57.952 23.4239 59.1464 21.8268 60.8739 21.8268C62.6019 21.8268 63.7639 23.4075 63.7639 26.2962ZM24.2238 16.9781V29.5453C24.2238 33.8587 26.853 35.972 31.0466 35.972C34.3928 35.972 36.7195 34.5878 38.1273 32.2559V35.4326H47.1899V16.9781H37.8539V27.9425C37.8539 29.6619 36.6471 30.3612 35.5272 30.3612C34.4072 30.3612 33.5454 29.6908 33.5454 28.0735V16.9781H24.2238ZM74.4568 16.9781H83.7778V35.3941H74.4568V16.9781ZM22.8721 20.9801C22.8721 23.7081 20.6536 25.9195 17.9171 25.9195C15.1805 25.9195 12.9621 23.7081 12.9621 20.9801C12.9621 18.2521 15.1805 16.0406 17.9171 16.0406C20.6536 16.0406 22.8721 18.2521 22.8721 20.9801ZM12.1784 15.9783L12.1788 25.2927C12.1956 27.5724 13.3215 28.5183 15.5866 28.5183C16.3712 28.5183 17.4235 28.3325 17.9336 27.9394V34.6801C16.2185 35.5268 14.8987 35.9988 12.5728 35.9988C12.5728 35.9988 12.3335 36.0008 11.9435 35.978L11.9344 36C6.29908 36 3.17131 32.386 3.26987 26.622V24.9825H0V16.9781H3.21151V12H12.1784V15.9783Z" fill="#232939"/>
</svg>
