<svg width="102" height="48" viewBox="0 0 102 48" fill="none" xmlns="http://www.w3.org/2000/svg">
<path d="M59.1152 15.0839L64.856 12.9425L59.1152 10.74V7.74219L68.9478 11.7189V14.1662L59.1152 18.1429V15.0839Z" fill="#232939"/>
<path d="M4.81056 34.0504C2.74018 34.0504 1.03516 33.0103 1.03516 30.6855V30.5631C1.03516 27.7488 3.4709 26.7699 6.45469 26.7699H7.85524V26.2193C7.85524 25.0568 7.36809 24.3838 6.15022 24.3838C5.05413 24.3838 4.50609 24.9957 4.4452 25.8522H1.40052C1.64409 23.2826 3.65358 22.059 6.3329 22.059C9.07311 22.059 11.0826 23.2214 11.0826 26.0969V33.8057H7.97703V32.4597C7.36809 33.3162 6.3329 34.0504 4.81056 34.0504ZM7.85524 30.0125V28.9112H6.57647C4.99324 28.9112 4.20162 29.3395 4.20162 30.3796V30.5019C4.20162 31.2973 4.68877 31.8479 5.78486 31.8479C6.88094 31.7867 7.85524 31.1749 7.85524 30.0125ZM18.3289 34.0504C15.1625 34.0504 12.8485 32.0926 12.8485 28.177V27.9935C12.8485 24.0779 15.2843 21.9978 18.3289 21.9978C20.9474 21.9978 23.0786 23.3438 23.3222 26.3416H20.2775C20.0949 25.2404 19.4859 24.5062 18.3898 24.5062C17.0502 24.5062 16.0759 25.6075 16.0759 27.8711V28.2382C16.0759 30.5631 16.9284 31.6032 18.3898 31.6032C19.4859 31.6032 20.2775 30.8078 20.4602 29.523H23.3831C23.2004 32.215 21.4345 34.0504 18.3289 34.0504ZM30.2641 34.0504C27.0976 34.0504 24.7837 32.0926 24.7837 28.177V27.9935C24.7837 24.0779 27.2194 21.9978 30.2641 21.9978C32.8825 21.9978 35.0138 23.3438 35.2574 26.3416H32.2127C32.03 25.2404 31.4211 24.5062 30.325 24.5062C28.9853 24.5062 28.011 25.6075 28.011 27.8711V28.2382C28.011 30.5631 28.8635 31.6032 30.325 31.6032C31.4211 31.6032 32.2127 30.8078 32.3954 29.523H35.3183C35.1356 32.215 33.3697 34.0504 30.2641 34.0504ZM42.2601 34.0504C38.9719 34.0504 36.7188 32.0926 36.7188 28.2382V27.9935C36.7188 24.1391 39.0937 21.9978 42.1992 21.9978C45.0612 21.9978 47.4361 23.5885 47.4361 27.4429V28.85H39.9462C40.068 30.9302 40.9814 31.7255 42.321 31.7255C43.5389 31.7255 44.2087 31.0525 44.4523 30.2572H47.4361C47.0707 32.3985 45.2439 34.0504 42.2601 34.0504ZM40.0071 26.7087H44.2696C44.2087 24.9957 43.4171 24.2615 42.1383 24.2615C41.164 24.3227 40.2506 24.8733 40.0071 26.7087ZM49.3847 22.3037H52.612V24.0168C53.1601 22.9155 54.3171 22.059 56.083 22.059C58.1534 22.059 59.5539 23.3438 59.5539 26.0969V33.8057H56.3265V26.5864C56.3265 25.2404 55.7785 24.6286 54.6215 24.6286C53.5254 24.6286 52.612 25.3016 52.612 26.7699V33.8057H49.3847V22.3037ZM65.4606 18.8164V22.3037H67.6528V24.6898H65.4606V30.1348C65.4606 30.9914 65.8259 31.4196 66.6176 31.4196C67.1047 31.4196 67.4092 31.3584 67.7136 31.2361V33.7445C67.3483 33.8669 66.6785 33.9892 65.8868 33.9892C63.3902 33.9892 62.2332 32.8268 62.2332 30.5019V24.6898H60.8936V22.3037H62.2332V20.1624L65.4606 18.8164ZM79.7097 33.8057H76.5432V32.0926C75.9952 33.1939 74.8991 34.0504 73.1941 34.0504C71.1237 34.0504 69.6014 32.7656 69.6014 30.0736V22.3037H72.8287V29.6454C72.8287 30.9914 73.3768 31.6032 74.4728 31.6032C75.5689 31.6032 76.4823 30.869 76.4823 29.4618V22.3037H79.7097V33.8057ZM82.0845 22.3037H85.3119V24.445C85.9817 22.9155 87.0778 22.1813 88.7828 22.1813V25.3627C86.5907 25.3627 85.3119 26.0357 85.3119 27.9323V33.8669H82.0845V22.3037ZM95.2985 34.0504C92.0102 34.0504 89.7571 32.0926 89.7571 28.2382V27.9935C89.7571 24.1391 92.132 21.9978 95.2376 21.9978C98.0996 21.9978 100.474 23.5885 100.474 27.4429V28.85H93.0454C93.1672 30.9302 94.0806 31.7255 95.4202 31.7255C96.6381 31.7255 97.3079 31.0525 97.5515 30.2572H100.535C100.048 32.3985 98.2822 34.0504 95.2985 34.0504ZM92.9845 26.7087H97.3079C97.247 24.9957 96.4554 24.2615 95.1767 24.2615C94.2024 24.3227 93.289 24.8733 92.9845 26.7087Z" fill="#232939"/>
</svg>
