<svg width="138" height="48" viewBox="0 0 138 48" fill="none" xmlns="http://www.w3.org/2000/svg">
<g clip-path="url(#clip0_3604_308)">
<g clip-path="url(#clip1_3604_308)">
<mask id="mask0_3604_308" style="mask-type:luminance" maskUnits="userSpaceOnUse" x="-1" y="15" width="136" height="17">
<path d="M134.794 15.5H-0.00196838V31.9197H134.794V15.5Z" fill="white"/>
</mask>
<g mask="url(#mask0_3604_308)">
<path d="M20.132 28.048C21.9256 25.6234 25.0645 22.0076 24.9301 19.6255C24.7955 16.4777 21.3875 15.4568 17.9795 15.4993C15.6029 15.5419 13.2262 16.1799 11.6567 16.7329C6.09632 18.6471 2.82283 21.7524 0.93946 25.1555C-1.07844 28.5585 0.0874557 31.7914 5.15462 31.8765C8.60746 31.7489 10.8945 30.9406 13.0917 29.8772C13.2262 29.8347 13.1365 29.6645 13.002 29.6645C10.9842 30.175 6.23084 31.0683 4.03358 29.9622C3.71967 29.7921 3.40578 29.6219 3.27126 29.0264C3.13673 27.8354 5.10978 26.5592 6.23084 26.1763L6.00663 24.092C6.90348 24.4323 7.89001 24.6024 8.87651 24.6024C10.7599 24.6024 12.4191 23.9644 13.6298 22.901C13.7195 23.0711 13.7644 23.2838 13.8092 23.4965H14.3473C14.3473 22.9435 13.9885 22.5181 13.9885 22.5181C13.4056 21.795 12.5984 21.795 12.5984 21.795C12.5984 21.795 13.002 21.9651 13.3608 22.3905C10.4909 24.7726 6.94832 23.5816 6.94832 23.5816L8.4281 22.0502L7.80032 20.8591C11.1635 19.7106 14.0334 18.8173 18.7418 18.0091L17.5759 17.1583L18.1141 16.818C21.0737 17.5837 23.0467 18.1792 23.1363 19.6255C23.1363 19.8807 23.0467 20.136 22.957 20.4763C22.2844 22.0502 20.0871 24.6875 19.1903 25.7935C18.6073 26.5167 18.0244 27.2398 17.6208 27.9205C17.2172 28.6011 16.993 29.2391 17.0378 29.8772C16.993 33.4504 23.7642 30.4728 26.8135 28.516C26.9031 28.4734 26.8583 28.3033 26.7238 28.3458C18.1141 31.0257 20.132 28.048 20.132 28.048Z" fill="#232939"/>
<path d="M96.2283 26.5604C96.2283 28.1343 95.3759 28.9 93.717 28.9C92.641 28.9 92.1026 28.5171 92.1026 27.794C92.1026 27.1134 92.6854 26.688 93.8066 26.5179C94.2102 26.4328 95.0174 26.4328 96.2283 26.4328V26.5604ZM100.937 24.3909C100.937 21.6685 98.7839 20.3924 94.5242 20.3073C90.0845 20.2222 88.2465 21.3282 87.8429 23.6253H92.4166C92.641 22.8596 93.1786 22.4767 94.2546 22.4767C95.3315 22.5193 96.1387 23.0298 96.1831 24.3909C93.717 24.4335 91.8782 24.5611 90.6674 24.8589C88.2465 25.4118 87.0801 26.6454 87.0801 28.347C87.0801 29.4955 87.6185 30.3038 88.6945 30.8567C89.5017 31.2396 90.5333 31.4948 91.7886 31.4523C93.8962 31.3672 95.3759 30.8142 96.3179 29.6657V31.2396H100.937V24.3909Z" fill="#232939"/>
<path d="M130.081 26.6448C130.081 28.2187 129.229 28.9844 127.57 28.9844C126.494 28.9844 125.955 28.6016 125.955 27.8784C125.955 27.1978 126.539 26.7724 127.659 26.6022C128.063 26.5172 128.87 26.5172 130.081 26.5172V26.6448ZM134.79 24.5179C134.79 21.7955 132.637 20.5193 128.377 20.4342C123.938 20.3492 122.099 21.4552 121.696 23.7522H126.269C126.494 22.9866 127.032 22.6037 128.108 22.6037C129.184 22.6462 129.991 23.1567 130.037 24.5179C127.57 24.5605 125.732 24.688 124.521 24.9858C122.099 25.5389 120.934 26.7724 120.934 28.4739C120.934 29.6225 121.471 30.4307 122.547 30.9837C123.354 31.3665 124.386 31.6217 125.642 31.5792C127.749 31.4942 129.229 30.9412 130.171 29.7926V31.3665H134.79V24.5179Z" fill="#232939"/>
<path d="M38.8784 25.2844L41.4792 19.7544L43.9456 25.2844H38.8784ZM38.8784 16.1387L30.8965 31.3248H36.0982L37.3537 28.6023H45.3357L46.5015 31.3248H52.2413L44.6182 16.1387H38.8784Z" fill="#232939"/>
<path d="M58.786 16.1367H53.7637V31.3228H58.786V16.1367Z" fill="#232939"/>
<path d="M66.9891 16.1387H61.9668V19.1589H66.9891V16.1387Z" fill="#232939"/>
<path d="M66.9891 20.8184H61.9668V31.3253H66.9891V20.8184Z" fill="#232939"/>
<path d="M79.6396 27.709C78.6976 28.9001 77.5765 29.1979 76.1864 28.5173C76.0967 28.4747 76.0519 28.4322 75.9623 28.3896C75.5138 28.0068 75.2448 27.5389 75.1551 26.9859C74.9757 26.1777 75.0206 25.3695 75.2448 24.5612C75.4242 24.0082 75.738 23.5828 76.1864 23.285C76.7246 22.9873 77.3075 22.8597 77.9356 22.9447C78.7872 23.0724 79.4152 23.5403 79.7736 24.306C79.998 24.8164 80.0876 25.3695 80.0876 25.9224C80.0876 26.5605 79.9528 27.156 79.6396 27.709ZM70.1328 31.2822H75.0206V29.4106V29.368C76.321 30.9419 77.98 31.58 79.9528 31.5374C81.0741 31.4949 82.1057 31.1121 83.0025 30.5165C84.2577 29.5807 84.9309 28.3045 85.0205 26.7732C85.1546 25.1567 84.7509 23.7105 83.8097 22.4343C82.8677 21.3283 81.7021 20.6903 80.2224 20.5626C78.2044 20.3074 76.4555 20.9455 75.0206 22.3918V16.1387H70.0879L70.1328 31.2822Z" fill="#232939"/>
<path d="M113.401 27.7501C112.459 28.9411 111.339 29.2389 109.948 28.5582C109.859 28.5157 109.814 28.4732 109.725 28.4307C109.276 28.0478 109.007 27.5799 108.917 27.0269C108.738 26.2187 108.783 25.4104 109.007 24.6022C109.186 24.0493 109.5 23.6239 109.948 23.3261C110.487 23.0283 111.069 22.9007 111.697 22.9858C112.549 23.1134 113.177 23.5813 113.536 24.347C113.76 24.8575 113.849 25.4104 113.849 25.9635C113.849 26.6015 113.715 27.1971 113.401 27.7501ZM103.895 31.3233H108.783V29.4516V29.4091C110.083 30.983 111.743 31.6211 113.715 31.5785C114.837 31.536 115.867 31.1531 116.764 30.5576C118.02 29.6217 118.693 28.3456 118.782 26.8142C118.917 25.1978 118.514 23.7515 117.572 22.4753C116.63 21.3693 115.464 20.7313 113.984 20.6037C111.966 20.3484 110.218 20.9865 108.783 22.4328V16.1797H103.85L103.895 31.3233Z" fill="#232939"/>
</g>
</g>
</g>
<defs>
<clipPath id="clip0_3604_308">
<rect width="138" height="48" fill="white"/>
</clipPath>
<clipPath id="clip1_3604_308">
<rect width="134.796" height="17" fill="white" transform="translate(-1.52588e-05 15.5)"/>
</clipPath>
</defs>
</svg>
