<svg width="104" height="48" viewBox="0 0 104 48" fill="none" xmlns="http://www.w3.org/2000/svg">
<g clip-path="url(#clip0_3604_433)">
<g clip-path="url(#clip1_3604_433)">
<path fill-rule="evenodd" clip-rule="evenodd" d="M13.0683 25.2436C12.5064 24.9022 11.9071 24.6266 11.2822 24.4222C10.745 24.2317 10.1922 24.0883 9.63019 23.9935C8.94702 23.8731 8.25499 23.8099 7.5613 23.8047C6.60128 23.8039 5.64537 23.93 4.71837 24.1796C3.83884 24.4126 3.0072 24.7987 2.26152 25.3201C1.55696 25.8178 0.968275 26.4619 0.535785 27.2082C0.0854571 28.0096 -0.140962 28.9173 -0.119726 29.8362C-0.139028 30.7575 0.08722 31.6673 0.535785 32.4722C0.960739 33.2189 1.53878 33.8672 2.23196 34.3747C2.94792 34.8938 3.75664 35.271 4.61445 35.486C5.49461 35.727 6.40208 35.8541 7.31459 35.864C8.10855 35.8736 8.90126 35.8049 9.68215 35.6593C10.3541 35.5249 11.0142 35.3373 11.6565 35.0983C11.6565 35.0983 12.3387 34.8183 13.1367 34.3924L11.57 32.8207C11.2362 33.0014 10.892 33.1623 10.5393 33.3023C10.0456 33.4896 9.53799 33.6377 9.02103 33.745C8.40658 33.8679 7.78161 33.9306 7.15499 33.9323C6.57754 33.9319 6.00405 33.837 5.45725 33.6514C4.91293 33.4703 4.40751 33.1885 3.96734 32.8207C3.53174 32.4579 3.17261 32.0122 2.91081 31.5094C2.63636 30.975 2.49807 30.3811 2.50823 29.7805C2.49654 29.1891 2.61908 28.6026 2.86663 28.0654C3.09865 27.5718 3.44506 27.1407 3.87712 26.8078C4.33586 26.4576 4.85714 26.198 5.41308 26.0428C6.04733 25.8677 6.703 25.7824 7.36094 25.7893C7.98628 25.7849 8.6113 25.8344 9.22823 25.9374C9.49859 25.9902 9.74841 26.05 9.98019 26.1162C10.5154 26.2823 11.0263 26.5181 11.5 26.8175L13.0683 25.2436V25.2436ZM17.1597 35.7666H14.538V23.9578H17.1597V35.7666ZM45.2671 35.7666H34.101V23.9578H45.006V25.952H36.7364V28.897H42.3722V30.8747H36.7364V33.7898H45.2671V35.7663V35.7666ZM56.1015 28.6098C56.4885 28.4238 56.6799 28.0442 56.6799 27.4702C56.7018 27.2415 56.6592 27.0113 56.557 26.8055C56.4548 26.5998 56.297 26.4267 56.1015 26.306C55.6583 26.0688 55.1603 25.9529 54.658 25.97H49.8843V28.8914H54.658C55.1542 28.9072 55.6476 28.811 56.1015 28.6098V28.6098ZM58.1054 24.7663C58.908 25.2843 59.3094 26.1856 59.3094 27.4702C59.31 28.7582 58.9087 29.647 58.1054 30.1374C57.3008 30.6295 56.0956 30.8756 54.4893 30.8756H49.8843L49.8905 35.752H47.2541V23.9901H54.4893C56.0944 23.9886 57.2996 24.2474 58.1054 24.7663V24.7663ZM72.437 35.7803H60.8932V23.9581L63.4845 23.9518V33.8054H72.437V35.7803V35.7803ZM85.5743 35.7666H74.4076V23.9578H85.3133V25.952H77.044V28.8848H82.6794V30.8626H77.044V33.7898H85.5743V35.7663V35.7666ZM102.576 24.6892C102.623 24.6907 102.67 24.6854 102.715 24.6727C102.74 24.6629 102.762 24.6454 102.776 24.6226C102.791 24.5997 102.798 24.5729 102.797 24.5458C102.799 24.5229 102.796 24.4997 102.787 24.4787C102.777 24.4578 102.762 24.4398 102.743 24.4269C102.688 24.4028 102.629 24.3925 102.569 24.397H102.448V24.6895H102.576V24.6892ZM102.817 24.757C102.841 24.7705 102.862 24.7888 102.879 24.8108C102.905 24.8474 102.921 24.8908 102.923 24.9359V25.0557C102.924 25.0703 102.927 25.0847 102.93 25.0989L102.935 25.1086H102.801V25.1008C102.799 25.0979 102.798 25.0945 102.799 25.0911L102.794 25.0653V25.0012C102.794 24.9079 102.771 24.8457 102.72 24.8155C102.669 24.7948 102.614 24.7859 102.56 24.7897H102.448V25.1086H102.304V24.2997H102.59C102.664 24.2959 102.737 24.3059 102.808 24.3283C102.848 24.344 102.883 24.3726 102.906 24.4096C102.929 24.4467 102.939 24.4902 102.935 24.5336C102.937 24.5648 102.931 24.5959 102.917 24.6238C102.903 24.6517 102.882 24.6754 102.855 24.6923C102.82 24.7136 102.78 24.7273 102.738 24.7324C102.766 24.735 102.793 24.7434 102.817 24.757V24.757ZM103.19 24.9508C103.221 24.873 103.236 24.7903 103.235 24.7066C103.235 24.6019 103.209 24.4987 103.16 24.4063C103.111 24.3139 103.04 24.235 102.953 24.1768C102.821 24.0902 102.662 24.0555 102.507 24.0795C102.351 24.1035 102.21 24.1843 102.11 24.3065C102.011 24.4286 101.96 24.5833 101.968 24.7406C101.977 24.8979 102.043 25.0465 102.154 25.1577C102.212 25.2181 102.282 25.2659 102.359 25.2982C102.436 25.3304 102.519 25.3463 102.602 25.345C102.686 25.3461 102.769 25.3301 102.847 25.2979C102.924 25.2657 102.994 25.218 103.053 25.1577C103.112 25.0986 103.159 25.0283 103.19 24.9508V24.9508ZM103.216 24.2975C103.285 24.4008 103.327 24.5199 103.338 24.6438C103.349 24.7677 103.328 24.8923 103.278 25.0061C103.228 25.1198 103.15 25.219 103.051 25.2944C102.952 25.3698 102.835 25.419 102.712 25.4373C102.589 25.4556 102.464 25.4425 102.347 25.3992C102.231 25.3558 102.127 25.2837 102.046 25.1895C101.965 25.0953 101.908 24.9821 101.883 24.8604C101.857 24.7387 101.863 24.6125 101.899 24.4935C101.929 24.3953 101.979 24.3044 102.046 24.2267C102.114 24.149 102.196 24.0862 102.289 24.0423C102.382 23.9984 102.483 23.9743 102.586 23.9717C102.688 23.969 102.79 23.9878 102.885 24.0268C103.02 24.0825 103.135 24.1765 103.216 24.2975ZM98.3703 35.723L94.18 31.467L89.9896 35.723H86.7799L92.5774 29.8399L86.7799 23.9522H89.98L94.1797 28.2138L98.3794 23.9522H101.58L95.7825 29.8399L101.58 35.723H98.3703V35.723ZM32.0952 34.7813V35.7389H29.8226V35.7358L21.4418 27.2238V35.7386H19.1689V23.9304H21.4418V23.9375L29.8226 32.4682V23.9301H32.0952V34.7807V34.7813Z" fill="#232939"/>
<path fill-rule="evenodd" clip-rule="evenodd" d="M48.7941 8C36.8396 8.23302 27.4102 10.9126 27.4102 14.1846C27.4102 17.5247 37.2357 20.2472 49.5426 20.3804L49.6148 19.9187C39.4194 19.7889 31.2919 17.3704 31.2919 14.4039C31.2919 11.5087 39.0401 9.13587 48.8955 8.9044L48.7941 8ZM52.179 8C64.1334 8.23302 73.5629 10.9126 73.5629 14.1846C73.5629 17.5247 63.7374 20.2472 51.4304 20.3804L51.3583 19.9187C61.5537 19.7889 69.6811 17.3704 69.6811 14.4039C69.6811 11.5087 61.9329 9.13587 52.0775 8.9044L52.179 8V8ZM51.2161 19.0728C58.8843 18.9639 64.9852 17.1473 64.9852 14.9225V14.9222C64.9852 12.7619 59.23 10.9867 51.8738 10.7866L51.9758 9.87693C60.5858 10.0922 67.3416 12.1667 67.3416 14.696C67.3416 17.2926 60.2237 19.4112 51.2873 19.5301L51.2161 19.0728V19.0728ZM62.6637 15.2044C62.6637 13.4118 57.8919 11.9368 51.7723 11.7557L51.6703 12.6654C56.5476 12.8291 60.3307 14.0048 60.3307 15.4312C60.3307 16.9164 56.2349 18.1295 51.0717 18.2135L51.143 18.6674C57.5618 18.5725 62.6637 17.0583 62.6637 15.2044ZM35.9878 14.9222C35.9878 17.1473 42.0887 18.9639 49.757 19.0728L49.6854 19.5301C40.7494 19.4112 33.6314 17.2926 33.6314 14.696C33.6314 12.1667 40.3869 10.0922 48.9972 9.87693L49.0993 10.7866C41.7427 10.9867 35.9878 12.7619 35.9878 14.9222V14.9222ZM49.2007 11.7557C43.0811 11.9368 38.3093 13.4118 38.3093 15.2044C38.3093 17.0586 43.4112 18.5725 49.8301 18.6671L49.9013 18.2135C44.7381 18.1295 40.642 16.9161 40.642 15.4312C40.642 14.0048 44.4254 12.8291 49.3027 12.6654L49.2007 11.7557V11.7557Z" fill="#232939"/>
</g>
</g>
<defs>
<clipPath id="clip0_3604_433">
<rect width="104" height="48" fill="white"/>
</clipPath>
<clipPath id="clip1_3604_433">
<rect width="103.911" height="28" fill="white" transform="translate(-0.402344 8)"/>
</clipPath>
</defs>
</svg>
