<svg width="104" height="38" viewBox="0 0 104 38" fill="none" xmlns="http://www.w3.org/2000/svg">
<g id="Frame" clip-path="url(#clip0_608_5220)">
<g id="Group 1000004379">
<g id="Group">
<path id="Vector" d="M29.0763 10.0009V29.9629H26.1318C20.633 29.9629 16.1509 25.4807 16.1509 19.9819C16.1509 14.483 20.633 10.0009 26.1318 10.0009H29.0763Z" fill="#232939"/>
<path id="Vector_2" d="M3.62712 10.0016C9.12592 10.0016 13.6081 14.4838 13.6081 19.9826C13.6081 25.4815 9.12592 29.9636 3.62712 29.9636H0.682617V10.0016H3.62712Z" fill="#232939"/>
</g>
<g id="Group_2">
<path id="Vector_3" d="M92.3165 16.1613L96.2587 25.0254L100.201 16.1613H103.506C102.834 17.6641 95.6765 33.6597 95.6691 33.6755C94.7885 35.6477 92.4684 36.5399 90.5015 35.6624L89.4532 35.1952L89.4479 35.1931L90.6692 32.4511L91.1037 32.6451C91.9147 33.0069 92.8712 32.6388 93.234 31.8257C93.2372 31.8183 94.6061 28.7377 94.6061 28.7377L89.0103 16.1613H92.3165Z" fill="#232939"/>
<path id="Vector_4" d="M72.6658 10.0032H69.6401V29.9631H72.6658V10.0032Z" fill="#232939"/>
<path id="Vector_5" d="M82.1973 16.1496C80.7272 16.1496 79.3635 16.6115 78.2425 17.3961V10.0032H75.2104V29.9631H78.2425V28.7366C79.3646 29.5212 80.7272 29.9832 82.1973 29.9832C86.0119 29.9832 89.1146 26.8804 89.1146 23.0658C89.1146 19.2512 86.0119 16.1485 82.1973 16.1485V16.1496ZM82.1973 27.2116C80.3475 27.2116 78.7919 26.0072 78.2425 24.3546C78.1043 23.9401 78.0273 23.4993 78.0273 23.0405C78.0273 22.5818 78.1054 22.1378 78.2425 21.7243C78.7962 20.0622 80.3654 18.8705 82.1973 18.8705C84.4858 18.8705 86.3673 20.752 86.3673 23.0405C86.3673 25.3291 84.4858 27.2105 82.1973 27.2105V27.2116Z" fill="#232939"/>
<path id="Vector_6" d="M60.7654 16.1486C56.9508 16.1486 53.8481 19.2513 53.8481 23.0659C53.8481 26.8805 56.9508 29.9832 60.7654 29.9832C64.58 29.9832 67.6816 26.8805 67.6816 23.0659C67.6816 19.2513 64.5789 16.1486 60.7654 16.1486ZM60.7654 27.2106C58.4516 27.2106 56.5954 25.3291 56.5954 23.0406C56.5954 20.752 58.4769 18.8706 60.7654 18.8706C63.0539 18.8706 64.9354 20.752 64.9354 23.0406C64.9354 25.3291 63.0539 27.2106 60.7654 27.2106Z" fill="#232939"/>
<path id="Vector_7" d="M42.331 10H35.1216V29.9631H42.331C47.835 29.9631 52.3119 25.4851 52.3119 19.981C52.3119 14.4769 47.834 10 42.331 10ZM42.331 26.9363H38.1473V13.0268H42.331C46.1624 13.0268 49.2862 16.1506 49.2862 19.9821C49.2862 23.8136 46.1635 26.9374 42.331 26.9374V26.9363Z" fill="#232939"/>
</g>
</g>
</g>
<defs>
<clipPath id="clip0_608_5220">
<rect width="103" height="38" fill="white" transform="translate(0.686523)"/>
</clipPath>
</defs>
</svg>
