<svg width="89" height="48" viewBox="0 0 89 48" fill="none" xmlns="http://www.w3.org/2000/svg">
<g clip-path="url(#clip0_3604_403)">
<path d="M12.2477 34.453C10.9078 34.6876 9.54429 34.7579 8.13384 34.9453L3.83176 22.3829V35.4844C2.49185 35.625 1.26945 35.8125 0 36V12H3.57332L8.4629 25.6174V12H12.2477V34.453ZM19.6528 20.7891C21.1104 20.7891 23.3436 20.7187 24.6835 20.7187V24.4687C23.0144 24.4687 21.0633 24.4687 19.6528 24.539V30.1172C21.8626 29.9766 24.0724 29.789 26.3055 29.7186V33.3278L15.8914 34.1483V12H26.3055V15.75H19.6528V20.7891ZM40.2928 15.7501H36.3905V33.0001C35.121 33.0001 33.8516 33.0001 32.6294 33.0468V15.7501H28.7271V12H40.293L40.2928 15.7501ZM46.4049 20.5313H51.5532V24.2812H46.4049V32.7892H42.7138V12H53.2223V15.75H46.4049V20.5313ZM59.3343 29.5078C61.4736 29.5545 63.6362 29.7189 65.7286 29.8359V33.5391C62.367 33.328 59.0053 33.1173 55.5731 33.0468V12H59.3343V29.5078ZM68.9021 33.7969C70.101 33.8673 71.3705 33.9376 72.5929 34.078V12H68.9021V33.7969ZM89.0722 12L84.2999 23.4141L89.0722 36C87.6615 35.8125 86.2511 35.5547 84.8405 35.3203L82.1372 28.3829L79.387 34.7579C78.0233 34.5234 76.7069 34.453 75.3436 34.2655L80.1863 23.2733L75.8136 12H79.8568L82.3252 18.3047L84.9582 12L89.0722 12Z" fill="#232939"/>
</g>
<defs>
<clipPath id="clip0_3604_403">
<rect width="89" height="48" fill="white"/>
</clipPath>
</defs>
</svg>
