<svg width="75" height="48" viewBox="0 0 75 48" fill="none" xmlns="http://www.w3.org/2000/svg">
<g clip-path="url(#clip0_3604_397)">
<g clip-path="url(#clip1_3604_397)">
<path opacity="0.7" fill-rule="evenodd" clip-rule="evenodd" d="M66.2379 17.7793C71.2587 17.7794 75.3289 21.8523 75.3289 26.8766C75.3289 31.9009 71.2588 35.9738 66.2379 35.9739C61.2169 35.9739 57.1465 31.901 57.1465 26.8766C57.1465 21.8523 61.2169 17.7793 66.2379 17.7793ZM66.2376 21.5115C63.2741 21.5115 60.8757 23.9115 60.8757 26.8769C60.8757 29.8423 63.2741 32.2423 66.2376 32.2423C69.201 32.2423 71.5994 29.8423 71.5994 26.8769C71.5994 23.9115 69.201 21.5115 66.2376 21.5115Z" fill="#232939"/>
<path opacity="0.7" fill-rule="evenodd" clip-rule="evenodd" d="M46.9625 17.7793C51.9833 17.7794 56.0535 21.8523 56.0536 26.8766C56.0536 31.9009 51.9834 35.9738 46.9625 35.9739C41.9415 35.9739 37.8711 31.901 37.8711 26.8766C37.8711 21.8523 41.9415 17.7793 46.9625 17.7793ZM46.9625 21.5115C43.999 21.5115 41.6006 23.9115 41.6006 26.8769C41.6006 29.8423 43.999 32.2423 46.9625 32.2423C49.9259 32.2423 52.3243 29.8423 52.3243 26.8769C52.3243 23.9115 49.9259 21.5115 46.9625 21.5115Z" fill="#232939"/>
<path opacity="0.7" fill-rule="evenodd" clip-rule="evenodd" d="M35.2346 12C36.2266 12.0001 37.0426 12.8168 37.0426 13.8095V26.7143C37.0426 26.7394 37.0426 26.777 37.0301 26.8021V26.8775C37.0301 31.9036 32.9618 35.9747 27.939 35.9748C22.9162 35.9748 18.8477 31.9037 18.8477 26.8775C18.8477 21.8513 22.9163 17.7802 27.939 17.7802C29.9983 17.7802 31.8945 18.4714 33.4264 19.6148V13.8095C33.4254 13.5716 33.4714 13.3358 33.562 13.1158C33.6525 12.8959 33.7855 12.696 33.9536 12.5278C34.1217 12.3596 34.3215 12.2265 34.5413 12.1359C34.7611 12.0453 34.9969 11.999 35.2346 12ZM27.939 21.5121C24.9778 21.5121 22.5772 23.9143 22.5772 26.8775C22.5772 29.8407 24.9778 32.2429 27.939 32.2429C30.9003 32.2429 33.3009 29.8407 33.3009 26.8775C33.3009 23.9143 30.9003 21.5121 27.939 21.5121Z" fill="#232939"/>
<path fill-rule="evenodd" clip-rule="evenodd" d="M9.09138 17.7559C14.1122 17.7559 18.1824 21.8289 18.1825 26.8532C18.1825 31.8775 14.1123 35.9504 9.09138 35.9505C4.07042 35.9505 0 31.8775 0 26.8532C3.84923e-05 21.8289 4.07045 17.7559 9.09138 17.7559ZM9.00326 21.5254C6.04202 21.5254 3.64144 23.9276 3.64142 26.8908C3.64142 29.8541 6.04201 32.2563 9.00326 32.2563C11.9645 32.2562 14.3651 29.8541 14.3651 26.8908C14.3651 23.9276 11.9645 21.5255 9.00326 21.5254Z" fill="#232939"/>
</g>
</g>
<defs>
<clipPath id="clip0_3604_397">
<rect width="75" height="48" fill="white"/>
</clipPath>
<clipPath id="clip1_3604_397">
<rect width="75.3418" height="24" fill="white" transform="translate(0 12)"/>
</clipPath>
</defs>
</svg>
