<svg width="79" height="38" viewBox="0 0 79 38" fill="none" xmlns="http://www.w3.org/2000/svg">
<g id="Frame">
<g id="Group">
<g id="Subtract">
<path d="M16.3468 24.1046H12.2013V13.5178H17.5967C18.4738 13.5178 19.315 13.8663 19.9352 14.4865C20.5555 15.1067 20.9039 15.9479 20.9039 16.825C20.9039 17.7021 20.5555 18.5433 19.9352 19.1635C19.315 19.7837 18.4738 20.1322 17.5967 20.1322H16.3468V24.1046Z" fill="#232939"/>
<path fill-rule="evenodd" clip-rule="evenodd" d="M5.96257 4.38477H25.8395C28.4225 4.38477 30.5164 6.4787 30.5164 9.06169V28.9386C30.5164 31.5216 28.4225 33.6155 25.8395 33.6155H5.96257C3.37957 33.6155 1.28564 31.5216 1.28564 28.9386V9.06169C1.28564 6.4787 3.37957 4.38477 5.96257 4.38477ZM10.0552 26.2221H18.4935L18.4912 22.1783C19.8486 21.9712 21.0768 21.2566 21.9277 20.1788C22.7786 19.1011 23.1886 17.7405 23.0751 16.3721C22.9615 15.0036 22.3327 13.7293 21.3159 12.8066C20.299 11.8838 18.9697 11.3814 17.5967 11.4009H10.0552V26.2221Z" fill="#232939"/>
</g>
<path id="Vector" d="M40.2778 24.2616H41.7978V20.6603H43.7633C44.3514 20.6722 44.9344 20.549 45.4675 20.3002C45.9427 20.076 46.3427 19.7186 46.6186 19.2713C46.902 18.7886 47.0438 18.236 47.0278 17.6765C47.0448 17.1128 46.903 16.5557 46.6186 16.0688C46.3427 15.6215 45.9427 15.2641 45.4675 15.0399C44.9344 14.7911 44.3514 14.6679 43.7633 14.6797H40.2778V24.2616ZM41.7978 19.3099V16.0302H43.8019C44.2586 16.0095 44.7056 16.1662 45.0495 16.4675C45.2102 16.6209 45.3359 16.8072 45.418 17.0136C45.5001 17.22 45.5367 17.4417 45.5253 17.6636C45.5351 17.8853 45.4977 18.1065 45.4157 18.3127C45.3337 18.5189 45.2089 18.7053 45.0495 18.8597C44.7093 19.1685 44.2609 19.3303 43.8019 19.3099H41.7978ZM51.1973 24.4159C51.8505 24.4315 52.4948 24.2621 53.0558 23.9272C53.546 23.6419 53.9345 23.21 54.1665 22.6925L52.9833 22.1137C52.8095 22.4075 52.5692 22.6564 52.2817 22.8404C51.9604 23.0415 51.5868 23.1432 51.2078 23.1327C50.6923 23.1426 50.1925 22.9553 49.8106 22.6089C49.6155 22.4284 49.4582 22.211 49.3478 21.9692C49.2374 21.7274 49.1761 21.4662 49.1675 21.2005H54.3355C54.3623 21.0908 54.3795 20.9789 54.3869 20.8661C54.3955 20.7461 54.3998 20.6303 54.3998 20.5189C54.4049 19.9402 54.2703 19.3689 54.0075 18.8533C53.7493 18.3467 53.358 17.9199 52.8757 17.6186C52.3351 17.2934 51.7121 17.131 51.0815 17.1509C50.4649 17.1415 49.8578 17.3034 49.3277 17.6186C48.8108 17.9299 48.3869 18.374 48.1 18.9047C47.7934 19.4755 47.6384 20.1154 47.6498 20.7632C47.6393 21.4124 47.7957 22.0533 48.1041 22.6247C48.3979 23.165 48.8309 23.6169 49.3581 23.9336C49.9145 24.2618 50.5513 24.4288 51.1973 24.4159ZM51.0804 18.371C51.5365 18.3588 51.9794 18.5249 52.3151 18.834C52.4816 18.989 52.6153 19.1759 52.7081 19.3836C52.8009 19.5913 52.8509 19.8155 52.8552 20.043H49.1909C49.2482 19.5641 49.4821 19.1238 49.8468 18.8083C50.1925 18.5189 50.6308 18.3636 51.0815 18.371H51.0804ZM54.7342 24.2616H56.4448L58.0268 21.9336L59.5959 24.2616H61.3064L58.8756 20.7761L61.3193 17.3035H59.6087L58.0268 19.6057L56.4448 17.3047H54.7342L57.165 20.7773L54.7342 24.2616ZM65.062 24.4159C65.7152 24.4315 66.3595 24.2621 66.9205 23.9272C67.4107 23.6419 67.7992 23.21 68.0313 22.6925L66.848 22.1137C66.6743 22.4075 66.434 22.6564 66.1465 22.8404C65.8251 23.0415 65.4515 23.1432 65.0725 23.1327C64.5554 23.1449 64.0533 22.9585 63.6695 22.6118C63.4744 22.4313 63.317 22.2139 63.2067 21.9721C63.0963 21.7304 63.035 21.4691 63.0264 21.2035H68.1967C68.2235 21.0937 68.2407 20.9818 68.2482 20.8691C68.2567 20.749 68.261 20.6333 68.261 20.5218C68.2686 19.9427 68.1362 19.3703 67.8752 18.8533C67.6169 18.3467 67.2257 17.9199 66.7434 17.6186C66.2027 17.2934 65.5798 17.131 64.9492 17.1509C64.3326 17.1415 63.7254 17.3034 63.1953 17.6186C62.6785 17.9299 62.2546 18.374 61.9676 18.9047C61.661 19.4755 61.506 20.1154 61.5175 20.7632C61.5066 21.4123 61.6626 22.0532 61.9706 22.6247C62.2639 23.1647 62.6962 23.6166 63.2228 23.9336C63.7793 24.2618 64.4161 24.4288 65.062 24.4159ZM64.9451 18.371C65.4012 18.3588 65.8441 18.5249 66.1798 18.834C66.3463 18.989 66.48 19.1759 66.5728 19.3836C66.6656 19.5913 66.7157 19.8155 66.72 20.043H63.0544C63.1117 19.5641 63.3456 19.1238 63.7104 18.8083C64.0563 18.5186 64.4951 18.3633 64.9463 18.371H64.9451ZM69.4221 24.2616H70.8754V14.5254H69.4221V24.2616ZM74.8906 24.4159C75.3565 24.4256 75.8191 24.3357 76.2475 24.1523C76.6121 23.9972 76.9262 23.7433 77.1542 23.4191C77.3708 23.0987 77.4831 22.7191 77.4757 22.3323C77.4842 21.8749 77.3188 21.4313 77.0127 21.0912C76.6532 20.7138 76.1924 20.4481 75.6856 20.3259L74.5538 19.9939C74.341 19.926 74.1378 19.8309 73.9493 19.7109C73.8581 19.6545 73.7836 19.5746 73.7338 19.4796C73.6841 19.3846 73.6608 19.2779 73.6664 19.1707C73.6624 19.0566 73.686 18.9432 73.7353 18.8402C73.7846 18.7372 73.858 18.6476 73.9493 18.5791C74.171 18.4231 74.4387 18.3461 74.7093 18.3605C75.0638 18.3562 75.4113 18.4594 75.7061 18.6563C75.9972 18.8496 76.2225 19.1269 76.3521 19.4514L77.4711 18.9252C77.2782 18.3835 76.9072 17.9232 76.4188 17.6198C75.9102 17.3045 75.3217 17.1422 74.7234 17.1521C74.2847 17.1452 73.8499 17.2352 73.4501 17.4157C73.0943 17.5737 72.7877 17.8247 72.5626 18.1424C72.3444 18.4645 72.232 18.8467 72.2411 19.2356C72.2328 19.6838 72.3909 20.1191 72.6848 20.4575C73.0481 20.8405 73.5155 21.1087 74.0294 21.2292L75.1227 21.5379C75.3454 21.5978 75.5579 21.691 75.7529 21.8144C75.848 21.8723 75.9258 21.9549 75.9778 22.0534C76.0299 22.1519 76.0544 22.2626 76.0487 22.3739C76.0523 22.4975 76.0248 22.62 75.9686 22.7301C75.9124 22.8403 75.8294 22.9345 75.7272 23.0041C75.4804 23.1688 75.1876 23.2507 74.8912 23.2379C74.4972 23.2408 74.1123 23.1193 73.7915 22.8907C73.4528 22.6499 73.1834 22.3243 73.0104 21.9465L71.8915 22.4727C72.0993 23.056 72.4952 23.5537 73.0169 23.8874C73.5749 24.2462 74.2273 24.4302 74.8906 24.4159Z" fill="#232939"/>
</g>
</g>
</svg>
