<svg width="101" height="48" viewBox="0 0 101 48" fill="none" xmlns="http://www.w3.org/2000/svg">
<path d="M40.6815 32.8131C41.1353 32.8131 41.5291 32.5031 41.6312 32.0655L43.4494 24.2713C44.4775 19.7993 41.2177 16 36.8298 16H36.6763C33.1154 16 30.3774 18.17 29.6628 21.2334L26.9615 32.8131H30.6886C31.142 32.8131 31.5355 32.5037 31.6381 32.0666L33.9364 22.2679C34.253 20.9432 35.4776 20.0997 36.5723 20.0997L36.5803 20.0997C38.1474 20.0997 39.5743 21.6001 39.1022 23.5971L36.9553 32.8131H40.6815Z" fill="#232939"/>
<path d="M14.5862 16.4128L12.5936 24.9546C11.5654 29.4266 14.8253 33.226 19.2131 33.226H19.3667C22.9276 33.226 25.6655 31.056 26.3801 27.9925L28.9436 17.0036C29.0141 16.7014 28.7822 16.4128 28.4687 16.4128H24.58L22.1064 26.958C21.7899 28.2827 20.5654 29.1263 19.4706 29.1263H19.4626C17.8955 29.1263 16.4686 27.6259 16.9407 25.6288L18.95 17.0035C19.0204 16.7013 18.7885 16.4128 18.4751 16.4128H14.5862Z" fill="#232939"/>
<path d="M4.63285 32.4396C4.58176 32.6583 4.38488 32.8133 4.15801 32.8133H0L2.34048 22.904C3.22493 19.0918 5.98301 16.4121 10.2664 16.4121H13.1194L12.1994 20.3786C12.1485 20.5976 11.9516 20.7529 11.7244 20.7529L10.2664 20.7529C8.56445 20.7529 7.16723 21.6488 6.72163 23.4955L4.63285 32.4396Z" fill="#232939"/>
<path d="M76.6786 32.8093L80.5261 32.8093C80.9794 32.8093 81.3733 32.4993 81.4753 32.0617L84.4337 19.3793C84.7887 17.8676 83.6583 16.4188 82.09 16.4181L70.9438 16.4136C70.5707 16.4134 70.2303 16.6241 70.067 16.9561L68.1648 20.8245H76.2355L62.7561 32.821H68.4127C68.7716 32.821 69.1179 32.6904 69.3858 32.4541L78.5579 24.3599L76.6786 32.8093Z" fill="#232939"/>
<path d="M58.3277 29.0215L64.0931 16.4118L68.0983 16.4044C68.4585 16.4037 68.6949 16.7767 68.5377 17.0973L61.6298 31.1784C61.1408 32.1754 60.1192 32.8084 58.9994 32.8084H53.9012L55.4923 23.7636L51.3401 31.2999C50.8278 32.2298 49.8431 32.8084 48.7729 32.8084H43.1773L46.997 16.4196H50.8519C51.1707 16.4196 51.4037 16.7176 51.3236 17.0231L48.1748 29.0259L54.9155 17.7106C55.5167 16.6888 56.6421 16.1892 57.5827 16.2131C58.6029 16.2392 59.9405 16.9729 59.8025 18.7437L58.3277 29.0215Z" fill="#232939"/>
<path d="M88.8585 35.9922C89.2003 35.9915 89.5165 35.8141 89.6925 35.5245L100.854 17.1466C101.049 16.8251 100.815 16.4158 100.436 16.4158H96.5498L90.5075 26.4144L89.6199 16.8482C89.5972 16.6004 89.3874 16.4106 89.1358 16.41L85.333 16.4015L87.2329 31.7278L84.6662 36L88.8585 35.9922Z" fill="#232939"/>
</svg>
