<svg width="103" height="38" viewBox="0 0 103 38" fill="none" xmlns="http://www.w3.org/2000/svg">
<g clip-path="url(#clip0_608_5218)">
<path d="M37.155 27.4685C33.4468 27.4685 30.0046 26.3579 27.7069 24.2981C25.971 22.742 25.1369 20.6283 25.1369 18.4527C25.1369 16.3037 26.007 14.1754 27.7067 12.6274C29.8406 10.6851 33.6079 9.46875 37.155 9.46875C41.0802 9.46875 44.2219 10.4562 46.6236 12.6328C48.3324 14.1815 49.1585 16.3004 49.1585 18.4529C49.1585 20.5394 48.2818 22.7613 46.6236 24.2981C44.3872 26.3712 40.8726 27.4685 37.155 27.4685V25.0945C39.1231 25.0945 40.9489 24.4158 42.2239 23.1487C43.4901 21.8902 44.0801 20.3433 44.0801 18.4527C44.0801 16.6416 43.4437 14.9483 42.2239 13.7473C40.9659 12.5098 39.0966 11.8134 37.155 11.8134C35.2074 11.8134 33.3368 12.5026 32.0778 13.7473C30.8646 14.9479 30.2266 16.6461 30.2266 18.4527C30.2266 20.2538 30.872 21.951 32.0778 23.1489C33.3378 24.4008 35.2018 25.0947 37.155 25.0947V27.4688V27.4685ZM10.0519 9.47737C8.06835 9.47737 5.81486 9.84793 3.90015 10.702C2.13301 11.4895 0.686524 12.7631 0.686524 14.8746C0.685702 16.7763 1.8958 17.89 1.86291 17.8592C2.37761 18.3324 3.2062 19.1382 5.37253 19.6114C6.34067 19.8229 8.41059 20.1477 10.4719 20.3628C12.518 20.5784 14.5316 20.7833 15.3517 20.9906C16.0033 21.1563 17.0979 21.3819 17.0979 22.6083C17.0979 23.8299 15.9447 24.2027 15.7443 24.2836C15.5441 24.3626 14.1607 24.9966 11.674 24.9966C9.83795 24.9966 7.63072 24.4451 6.82619 24.1577C5.89873 23.828 4.92586 23.392 4.01834 22.2848C3.79264 22.0103 3.43663 21.2554 3.43663 20.508H1.18602V26.8065H3.68761V25.9555C3.68761 25.8586 3.80888 25.4601 4.22883 25.6496C4.75135 25.8867 6.28517 26.4967 7.8889 26.8311C9.20382 27.1058 10.0517 27.3027 11.6865 27.3027C14.3538 27.3027 15.7867 26.8687 16.7772 26.5862C17.7104 26.3193 18.8636 25.8401 19.8003 25.0941C20.3076 24.6907 21.4201 23.6566 21.4201 21.7796C21.4201 19.9779 20.4519 18.8596 20.1113 18.5195C19.6474 18.0559 19.0807 17.6966 18.4901 17.4197C17.9756 17.1778 17.1637 16.8873 16.4993 16.725C15.2099 16.4088 12.2943 16.0187 10.9 15.873C9.43795 15.7204 6.90162 15.5106 5.88866 15.1975C5.58158 15.1025 4.95546 14.8046 4.95546 14.0787C4.95546 13.5624 5.2418 13.1247 5.80767 12.7709C6.70594 12.2088 8.52036 11.8594 10.4117 11.8594C12.6477 11.8512 14.5412 12.3618 15.7458 12.8997C16.1554 13.0824 16.6348 13.3448 17.0155 13.6552C17.4451 14.005 18.0482 14.7319 18.2663 15.7459H20.2868V10.2632H18.0307V10.9005C18.0307 11.1062 17.8179 11.3735 17.4157 11.1526C16.406 10.6235 13.5513 9.48209 10.0515 9.47737H10.0519ZM59.4943 10.4737L70.5002 20.3936L70.3871 13.7147C70.3763 12.8389 70.2144 12.4733 69.2663 12.4733H67.1969V10.4753H76.6072V12.4733H74.5886C73.621 12.4733 73.5603 12.7822 73.5485 13.7147L73.7191 26.4766H70.4966L57.8201 15.177L57.8227 23.1963C57.8334 24.068 57.8746 24.4786 58.7738 24.4786H61.0339V26.4757H51.7922V24.4788H53.9526C54.7594 24.4788 54.7275 23.7104 54.7275 23.1509V13.7907C54.7275 13.1865 54.6427 12.4747 53.3755 12.4747H51.6226V10.4737H59.4943ZM87.3602 24.4749C87.4485 24.4749 87.8412 24.4636 87.9172 24.4404C88.1346 24.3727 88.2821 24.2179 88.3499 24.0565C88.3787 23.9888 88.3931 23.689 88.3931 23.624L88.3951 20.4665C88.3951 20.3905 88.3895 20.3577 88.2605 20.1885C88.1187 20.0037 82.4957 13.6396 82.2383 13.3593C81.9186 13.0113 81.3575 12.4735 80.505 12.4735H78.5491V10.4747H89.5848V12.471H88.2543C87.947 12.471 87.7425 12.7625 88.0051 13.0865C88.0051 13.0865 91.7179 17.5223 91.7534 17.5687C91.7878 17.6159 91.8176 17.6272 91.8649 17.5841C91.9111 17.54 95.6707 13.1271 95.7005 13.0922C95.8793 12.8783 95.758 12.4733 95.3726 12.4733H94.0078V10.4747H103.052V12.4733H101.032C100.299 12.4733 100 12.6088 99.4488 13.2314C99.1964 13.5164 93.5134 19.9949 93.3592 20.1704C93.278 20.2622 93.2852 20.3901 93.2852 20.4661V23.6231C93.2852 23.6872 93.2996 23.9873 93.3284 24.0547C93.3968 24.2168 93.5448 24.3716 93.7621 24.4386C93.8382 24.462 94.2251 24.4735 94.3135 24.4735H96.3804V26.4718H85.4018V24.4733L87.3607 24.4749H87.3602Z" fill="#232939"/>
</g>
<defs>
<clipPath id="clip0_608_5218">
<rect width="102" height="38" fill="white" transform="translate(0.686523)"/>
</clipPath>
</defs>
</svg>
